<svg width="1280" height="1051" viewBox="0 0 1280 1051" fill="none" xmlns="http://www.w3.org/2000/svg">
<line x1="580.5" y1="1051" x2="580.5" stroke="url(#paint0_linear_2164_201)" stroke-dasharray="12 12"/>
<line x1="463.5" y1="1051" x2="463.5" stroke="url(#paint1_linear_2164_201)" stroke-dasharray="12 12"/>
<line x1="1165.5" y1="1051" x2="1165.5" stroke="url(#paint2_linear_2164_201)" stroke-dasharray="12 12"/>
<line x1="1048.5" y1="1051" x2="1048.5" stroke="url(#paint3_linear_2164_201)" stroke-dasharray="12 12"/>
<line x1="931.5" y1="1051" x2="931.5" stroke="url(#paint4_linear_2164_201)" stroke-dasharray="12 12"/>
<line x1="814.5" y1="1051" x2="814.5" stroke="url(#paint5_linear_2164_201)" stroke-dasharray="12 12"/>
<line x1="697.5" y1="1051" x2="697.5" stroke="url(#paint6_linear_2164_201)" stroke-dasharray="12 12"/>
<line x1="346.5" y1="1051" x2="346.5" stroke="url(#paint7_linear_2164_201)" stroke-dasharray="12 12"/>
<line x1="229.5" y1="1051" x2="229.5" stroke="url(#paint8_linear_2164_201)" stroke-dasharray="12 12"/>
<line x1="112.5" y1="1051" x2="112.5" stroke="url(#paint9_linear_2164_201)" stroke-dasharray="12 12"/>
<circle cx="347" cy="202" r="3" fill="#BDC7C3"/>
<line y1="202.5" x2="1280" y2="202.5" stroke="url(#paint10_linear_2164_201)" stroke-dasharray="12 12"/>
<circle cx="464" cy="202.016" r="3" fill="#BDC7C3"/>
<circle cx="581" cy="202.016" r="3" fill="#BDC7C3"/>
<circle cx="698" cy="202.016" r="3" fill="#BDC7C3"/>
<circle cx="815" cy="202.016" r="3" fill="#BDC7C3"/>
<circle cx="932" cy="202.016" r="3" fill="#BDC7C3"/>
<circle cx="1049" cy="202.016" r="3" fill="#BDC7C3"/>
<circle cx="1166" cy="202.016" r="3" fill="#BDC7C3"/>
<circle cx="113" cy="202" r="3" fill="#BDC7C3"/>
<circle cx="229" cy="202" r="3" fill="#BDC7C3"/>
<circle cx="347" cy="314" r="3" fill="#BDC7C3"/>
<line y1="314.5" x2="1280" y2="314.5" stroke="url(#paint11_linear_2164_201)" stroke-dasharray="12 12"/>
<circle cx="464" cy="314.016" r="3" fill="#BDC7C3"/>
<circle cx="581" cy="314.016" r="3" fill="#BDC7C3"/>
<circle cx="698" cy="314.016" r="3" fill="#BDC7C3"/>
<circle cx="815" cy="314.016" r="3" fill="#BDC7C3"/>
<circle cx="932" cy="314.016" r="3" fill="#BDC7C3"/>
<circle cx="1049" cy="314.016" r="3" fill="#BDC7C3"/>
<circle cx="1166" cy="314.016" r="3" fill="#BDC7C3"/>
<circle cx="113" cy="314" r="3" fill="#BDC7C3"/>
<circle cx="229" cy="314" r="3" fill="#BDC7C3"/>
<circle cx="347" cy="426" r="3" fill="#BDC7C3"/>
<line y1="426.5" x2="1280" y2="426.5" stroke="url(#paint12_linear_2164_201)" stroke-dasharray="12 12"/>
<circle cx="464" cy="426.016" r="3" fill="#BDC7C3"/>
<circle cx="581" cy="426.016" r="3" fill="#BDC7C3"/>
<circle cx="698" cy="426.016" r="3" fill="#BDC7C3"/>
<circle cx="815" cy="426.016" r="3" fill="#BDC7C3"/>
<circle cx="932" cy="426.016" r="3" fill="#BDC7C3"/>
<circle cx="1049" cy="426.016" r="3" fill="#BDC7C3"/>
<circle cx="1166" cy="426.016" r="3" fill="#BDC7C3"/>
<circle cx="113" cy="426" r="3" fill="#BDC7C3"/>
<circle cx="229" cy="426" r="3" fill="#BDC7C3"/>
<circle cx="347" cy="538" r="3" fill="#BDC7C3"/>
<line y1="538.5" x2="1280" y2="538.5" stroke="url(#paint13_linear_2164_201)" stroke-dasharray="12 12"/>
<circle cx="464" cy="538.016" r="3" fill="#BDC7C3"/>
<circle cx="581" cy="538.016" r="3" fill="#BDC7C3"/>
<circle cx="698" cy="538.016" r="3" fill="#BDC7C3"/>
<circle cx="815" cy="538.016" r="3" fill="#BDC7C3"/>
<circle cx="932" cy="538.016" r="3" fill="#BDC7C3"/>
<circle cx="1049" cy="538.016" r="3" fill="#BDC7C3"/>
<circle cx="1166" cy="538.016" r="3" fill="#BDC7C3"/>
<circle cx="113" cy="538" r="3" fill="#BDC7C3"/>
<circle cx="229" cy="538" r="3" fill="#BDC7C3"/>
<circle cx="347" cy="650" r="3" fill="#BDC7C3"/>
<line y1="650.5" x2="1280" y2="650.5" stroke="url(#paint14_linear_2164_201)" stroke-dasharray="12 12"/>
<circle cx="464" cy="650.016" r="3" fill="#BDC7C3"/>
<circle cx="581" cy="650.016" r="3" fill="#BDC7C3"/>
<circle cx="698" cy="650.016" r="3" fill="#BDC7C3"/>
<circle cx="815" cy="650.016" r="3" fill="#BDC7C3"/>
<circle cx="932" cy="650.016" r="3" fill="#BDC7C3"/>
<circle cx="1049" cy="650.016" r="3" fill="#BDC7C3"/>
<circle cx="1166" cy="650.016" r="3" fill="#BDC7C3"/>
<circle cx="113" cy="650" r="3" fill="#BDC7C3"/>
<circle cx="229" cy="650" r="3" fill="#BDC7C3"/>
<circle cx="347" cy="762" r="3" fill="#BDC7C3"/>
<line y1="762.5" x2="1280" y2="762.5" stroke="url(#paint15_linear_2164_201)" stroke-dasharray="12 12"/>
<circle cx="464" cy="762.016" r="3" fill="#BDC7C3"/>
<circle cx="581" cy="762.016" r="3" fill="#BDC7C3"/>
<circle cx="698" cy="762.016" r="3" fill="#BDC7C3"/>
<circle cx="815" cy="762.016" r="3" fill="#BDC7C3"/>
<circle cx="932" cy="762.016" r="3" fill="#BDC7C3"/>
<circle cx="1049" cy="762.016" r="3" fill="#BDC7C3"/>
<circle cx="1166" cy="762.016" r="3" fill="#BDC7C3"/>
<circle cx="113" cy="762" r="3" fill="#BDC7C3"/>
<circle cx="229" cy="762" r="3" fill="#BDC7C3"/>
<circle cx="347" cy="881" r="3" fill="#BDC7C3"/>
<line y1="881.5" x2="1280" y2="881.5" stroke="url(#paint16_linear_2164_201)" stroke-dasharray="12 12"/>
<circle cx="464" cy="881.016" r="3" fill="#BDC7C3"/>
<circle cx="581" cy="881.016" r="3" fill="#BDC7C3"/>
<circle cx="698" cy="881.016" r="3" fill="#BDC7C3"/>
<circle cx="815" cy="881.016" r="3" fill="#BDC7C3"/>
<circle cx="932" cy="881.016" r="3" fill="#BDC7C3"/>
<circle cx="1049" cy="881.016" r="3" fill="#BDC7C3"/>
<circle cx="1166" cy="881.016" r="3" fill="#BDC7C3"/>
<circle cx="113" cy="881" r="3" fill="#BDC7C3"/>
<circle cx="229" cy="881" r="3" fill="#BDC7C3"/>
<defs>
<linearGradient id="paint0_linear_2164_201" x1="581.5" y1="0" x2="581.5" y2="1051" gradientUnits="userSpaceOnUse">
<stop stop-color="white"/>
<stop offset="0.47" stop-color="#D5DBD9"/>
<stop offset="1" stop-color="white"/>
</linearGradient>
<linearGradient id="paint1_linear_2164_201" x1="464.5" y1="0" x2="464.5" y2="1051" gradientUnits="userSpaceOnUse">
<stop stop-color="white"/>
<stop offset="0.47" stop-color="#D5DBD9"/>
<stop offset="1" stop-color="white"/>
</linearGradient>
<linearGradient id="paint2_linear_2164_201" x1="1166.5" y1="0" x2="1166.5" y2="1051" gradientUnits="userSpaceOnUse">
<stop stop-color="white"/>
<stop offset="0.47" stop-color="#D5DBD9"/>
<stop offset="1" stop-color="white"/>
</linearGradient>
<linearGradient id="paint3_linear_2164_201" x1="1049.5" y1="0" x2="1049.5" y2="1051" gradientUnits="userSpaceOnUse">
<stop stop-color="white"/>
<stop offset="0.47" stop-color="#D5DBD9"/>
<stop offset="1" stop-color="white"/>
</linearGradient>
<linearGradient id="paint4_linear_2164_201" x1="932.5" y1="0" x2="932.5" y2="1051" gradientUnits="userSpaceOnUse">
<stop stop-color="white"/>
<stop offset="0.47" stop-color="#D5DBD9"/>
<stop offset="1" stop-color="white"/>
</linearGradient>
<linearGradient id="paint5_linear_2164_201" x1="815.5" y1="0" x2="815.5" y2="1051" gradientUnits="userSpaceOnUse">
<stop stop-color="white"/>
<stop offset="0.47" stop-color="#D5DBD9"/>
<stop offset="1" stop-color="white"/>
</linearGradient>
<linearGradient id="paint6_linear_2164_201" x1="698.5" y1="0" x2="698.5" y2="1051" gradientUnits="userSpaceOnUse">
<stop stop-color="white"/>
<stop offset="0.47" stop-color="#D5DBD9"/>
<stop offset="1" stop-color="white"/>
</linearGradient>
<linearGradient id="paint7_linear_2164_201" x1="347.5" y1="0" x2="347.5" y2="1051" gradientUnits="userSpaceOnUse">
<stop stop-color="white"/>
<stop offset="0.47" stop-color="#D5DBD9"/>
<stop offset="1" stop-color="white"/>
</linearGradient>
<linearGradient id="paint8_linear_2164_201" x1="230.5" y1="0" x2="230.5" y2="1051" gradientUnits="userSpaceOnUse">
<stop stop-color="white"/>
<stop offset="0.47" stop-color="#D5DBD9"/>
<stop offset="1" stop-color="white"/>
</linearGradient>
<linearGradient id="paint9_linear_2164_201" x1="113.5" y1="0" x2="113.5" y2="1051" gradientUnits="userSpaceOnUse">
<stop stop-color="white"/>
<stop offset="0.47" stop-color="#D5DBD9"/>
<stop offset="1" stop-color="white"/>
</linearGradient>
<linearGradient id="paint10_linear_2164_201" x1="1280" y1="203.5" x2="0" y2="203.5" gradientUnits="userSpaceOnUse">
<stop stop-color="white"/>
<stop offset="0.42827" stop-color="#DADFDD"/>
<stop offset="1" stop-color="white"/>
</linearGradient>
<linearGradient id="paint11_linear_2164_201" x1="1280" y1="315.5" x2="0" y2="315.5" gradientUnits="userSpaceOnUse">
<stop stop-color="white"/>
<stop offset="0.42827" stop-color="#DADFDD"/>
<stop offset="1" stop-color="white"/>
</linearGradient>
<linearGradient id="paint12_linear_2164_201" x1="1280" y1="427.5" x2="0" y2="427.5" gradientUnits="userSpaceOnUse">
<stop stop-color="white"/>
<stop offset="0.42827" stop-color="#DADFDD"/>
<stop offset="1" stop-color="white"/>
</linearGradient>
<linearGradient id="paint13_linear_2164_201" x1="1280" y1="539.5" x2="0" y2="539.5" gradientUnits="userSpaceOnUse">
<stop stop-color="white"/>
<stop offset="0.42827" stop-color="#DADFDD"/>
<stop offset="1" stop-color="white"/>
</linearGradient>
<linearGradient id="paint14_linear_2164_201" x1="1280" y1="651.5" x2="0" y2="651.5" gradientUnits="userSpaceOnUse">
<stop stop-color="white"/>
<stop offset="0.42827" stop-color="#DADFDD"/>
<stop offset="1" stop-color="white"/>
</linearGradient>
<linearGradient id="paint15_linear_2164_201" x1="1280" y1="763.5" x2="0" y2="763.5" gradientUnits="userSpaceOnUse">
<stop stop-color="white"/>
<stop offset="0.42827" stop-color="#DADFDD"/>
<stop offset="1" stop-color="white"/>
</linearGradient>
<linearGradient id="paint16_linear_2164_201" x1="1280" y1="882.5" x2="0" y2="882.5" gradientUnits="userSpaceOnUse">
<stop stop-color="white"/>
<stop offset="0.42827" stop-color="#DADFDD"/>
<stop offset="1" stop-color="white"/>
</linearGradient>
</defs>
</svg>
