<svg width="411" height="236" viewBox="0 0 411 236" fill="none" xmlns="http://www.w3.org/2000/svg">
<path d="M12.2595 118.722C29.6983 146.065 61.5282 158.714 91.5552 153.081C94.0315 110.538 112.164 69.3873 143.939 38.7725C143.375 37.799 142.785 36.8284 142.171 35.8666C119.281 -0.0238195 71.5921 -10.6017 35.741 12.2633C-0.110023 35.1284 -10.6307 82.8312 12.2595 118.722Z" fill="#C6D2BB"/>
<path d="M170.806 30.2753C98.1835 76.592 76.8707 173.222 123.24 245.926C169.61 318.632 266.215 340.056 338.837 293.739C411.457 247.424 432.772 150.793 386.402 78.0868C340.033 5.38295 243.425 -16.0401 170.806 30.2753Z" fill="#C6D2BB"/>
</svg>
