<svg width="44" height="45" viewBox="0 0 44 45" fill="none" xmlns="http://www.w3.org/2000/svg">
<path fill-rule="evenodd" clip-rule="evenodd" d="M9.49572 10.5637C12.5921 11.532 17.0137 12.1667 22.0001 12.1667C26.9864 12.1667 31.4057 11.532 34.5021 10.5637C38.3357 9.36667 38.6694 8.07167 34.5021 6.76967C31.4081 5.80133 26.9887 5.16667 22.0001 5.16667C17.0114 5.16667 12.5921 5.80133 9.49572 6.76967C5.34705 8.06467 5.72039 9.383 9.49572 10.5637ZM22.0001 0.5C16.6754 0.5 11.7637 1.172 8.10505 2.31533C4.47672 3.44933 0.337387 5.708 1.02805 10.188L4.60972 33.4793C5.39839 38.6103 9.05239 43.186 14.5194 44.1357C16.7641 44.5253 19.3657 44.8333 22.0001 44.8333C24.5089 44.8129 27.0114 44.5795 29.4807 44.1357C34.9477 43.1883 38.5994 38.6103 39.3904 33.4793L42.9721 10.188C43.6627 5.708 39.5234 3.44933 35.8951 2.31533C32.2364 1.172 27.3224 0.5 22.0001 0.5Z" fill="white" fill-opacity="0.8"/>
</svg>
