<svg width="54" height="54" viewBox="0 0 54 54" fill="none" xmlns="http://www.w3.org/2000/svg">
<path d="M40.4997 3.61768C44.6042 5.98743 48.0126 9.39585 50.3824 13.5004C52.7521 17.6049 53.9996 22.2609 53.9996 27.0004C53.9996 31.7399 52.752 36.3958 50.3822 40.5003C48.0124 44.6048 44.604 48.0132 40.4994 50.3829C36.3949 52.7526 31.7389 54.0001 26.9994 54C22.2599 53.9999 17.6039 52.7523 13.4995 50.3825C9.39499 48.0126 5.98664 44.6041 3.61699 40.4996C1.24734 36.395 -0.000120391 31.739 8.71459e-09 26.9995L0.0135002 26.1247C0.164707 21.4618 1.52157 16.9177 3.9518 12.9353C6.38203 8.95291 9.80269 5.66819 13.8803 3.40137C17.9579 1.13455 22.5533 -0.0370189 27.2185 0.000891657C31.8837 0.0388022 36.4595 1.28489 40.4997 3.61768ZM26.9998 10.7996C26.2837 10.7996 25.597 11.0841 25.0906 11.5904C24.5843 12.0968 24.2998 12.7835 24.2998 13.4996C22.1516 13.4996 20.0913 14.353 18.5723 15.872C17.0533 17.3911 16.1999 19.4513 16.1999 21.5996C16.1999 23.7478 17.0533 25.808 18.5723 27.3271C20.0913 28.8461 22.1516 29.6995 24.2998 29.6995V35.0995C23.852 35.1242 23.405 35.0393 22.9975 34.852C22.59 34.6648 22.2344 34.3808 21.9616 34.0249L21.778 33.7522C21.4086 33.1564 20.822 32.7277 20.1422 32.5566C19.4624 32.3856 18.7428 32.4856 18.1354 32.8356C17.528 33.1856 17.0806 33.758 16.8877 34.432C16.6948 35.1059 16.7715 35.8284 17.1017 36.4467C17.7908 37.6419 18.7738 38.6413 19.9575 39.3501C21.1411 40.0588 22.4862 40.4535 23.8651 40.4967H24.2998C24.2992 41.1585 24.5417 41.7974 24.9813 42.2922C25.4208 42.787 26.0267 43.1031 26.6839 43.1805L26.9998 43.1994C27.7159 43.1994 28.4026 42.9149 28.909 42.4086C29.4153 41.9022 29.6998 41.2155 29.6998 40.4994L30.175 40.4859C32.2799 40.3643 34.2544 39.4266 35.679 37.8722C37.1036 36.3179 37.8659 34.2693 37.804 32.1618C37.7422 30.0543 36.861 28.0539 35.3476 26.5858C33.8343 25.1177 31.8082 24.2975 29.6998 24.2995V18.8996C30.6664 18.8672 31.5115 19.2776 32.038 19.9742L32.2216 20.2469C32.591 20.8426 33.1776 21.2713 33.8574 21.4424C34.5372 21.6134 35.2568 21.5134 35.8642 21.1634C36.4716 20.8135 36.919 20.241 37.1119 19.5671C37.3048 18.8932 37.2281 18.1706 36.8979 17.5523C36.2091 16.3566 35.2263 15.3567 34.0426 14.6474C32.8589 13.9382 31.5137 13.5431 30.1345 13.4996H29.6998C29.6998 12.7835 29.4153 12.0968 28.909 11.5904C28.4026 11.0841 27.7159 10.7996 26.9998 10.7996ZM29.6998 29.6995C30.4159 29.6995 31.1026 29.984 31.609 30.4903C32.1153 30.9966 32.3998 31.6834 32.3998 32.3995C32.3998 33.1156 32.1153 33.8023 31.609 34.3086C31.1026 34.815 30.4159 35.0995 29.6998 35.0995V29.6995ZM24.2998 18.8996V24.2995C23.5837 24.2995 22.897 24.0151 22.3906 23.5087C21.8843 23.0024 21.5998 22.3156 21.5998 21.5996C21.5998 20.8835 21.8843 20.1967 22.3906 19.6904C22.897 19.184 23.5837 18.8996 24.2998 18.8996Z" fill="white" fill-opacity="0.8"/>
</svg>
