<svg xmlns="http://www.w3.org/2000/svg" viewBox="0 0 400 400">
  <!-- Background -->
  <rect width="400" height="400" fill="white" />
  
  <!-- Horizontal Lines -->
  <g stroke="#E0E0E0" stroke-width="0.5">
    <!-- Horizontal lines -->
    <line x1="0" y1="40" x2="400" y2="40" />
    <line x1="0" y1="80" x2="400" y2="80" />
    <line x1="0" y1="120" x2="400" y2="120" />
    <line x1="0" y1="160" x2="400" y2="160" />
    <line x1="0" y1="200" x2="400" y2="200" />
    <line x1="0" y1="240" x2="400" y2="240" />
    <line x1="0" y1="280" x2="400" y2="280" />
    <line x1="0" y1="320" x2="400" y2="320" />
    <line x1="0" y1="360" x2="400" y2="360" />
    
    <!-- Vertical lines -->
    <line x1="40" y1="0" x2="40" y2="400" />
    <line x1="80" y1="0" x2="80" y2="400" />
    <line x1="120" y1="0" x2="120" y2="400" />
    <line x1="160" y1="0" x2="160" y2="400" />
    <line x1="200" y1="0" x2="200" y2="400" />
    <line x1="240" y1="0" x2="240" y2="400" />
    <line x1="280" y1="0" x2="280" y2="400" />
    <line x1="320" y1="0" x2="320" y2="400" />
    <line x1="360" y1="0" x2="360" y2="400" />
  </g>
  
  <!-- Dots -->
  <g fill="#CCCCCC">
    <!-- Row 1 -->
    <circle cx="40" cy="40" r="2" />
    <circle cx="80" cy="40" r="2" />
    <circle cx="120" cy="40" r="2" />
    <circle cx="160" cy="40" r="2" />
    <circle cx="200" cy="40" r="2" />
    <circle cx="240" cy="40" r="2" />
    <circle cx="280" cy="40" r="2" />
    <circle cx="320" cy="40" r="2" />
    <circle cx="360" cy="40" r="2" />
    
    <!-- Row 2 -->
    <circle cx="40" cy="80" r="2" />
    <circle cx="80" cy="80" r="2" />
    <circle cx="120" cy="80" r="2" />
    <circle cx="160" cy="80" r="2" />
    <circle cx="200" cy="80" r="2" />
    <circle cx="240" cy="80" r="2" />
    <circle cx="280" cy="80" r="2" />
    <circle cx="320" cy="80" r="2" />
    <circle cx="360" cy="80" r="2" />
    
    <!-- Row 3 -->
    <circle cx="40" cy="120" r="2" />
    <circle cx="80" cy="120" r="2" />
    <circle cx="120" cy="120" r="2" />
    <circle cx="160" cy="120" r="2" />
    <circle cx="200" cy="120" r="2" />
    <circle cx="240" cy="120" r="2" />
    <circle cx="280" cy="120" r="2" />
    <circle cx="320" cy="120" r="2" />
    <circle cx="360" cy="120" r="2" />
    
    <!-- Row 4 -->
    <circle cx="40" cy="160" r="2" />
    <circle cx="80" cy="160" r="2" />
    <circle cx="120" cy="160" r="2" />
    <circle cx="160" cy="160" r="2" />
    <circle cx="200" cy="160" r="2" />
    <circle cx="240" cy="160" r="2" />
    <circle cx="280" cy="160" r="2" />
    <circle cx="320" cy="160" r="2" />
    <circle cx="360" cy="160" r="2" />
    
    <!-- Row 5 -->
    <circle cx="40" cy="200" r="2" />
    <circle cx="80" cy="200" r="2" />
    <circle cx="120" cy="200" r="2" />
    <circle cx="160" cy="200" r="2" />
    <circle cx="200" cy="200" r="2" />
    <circle cx="240" cy="200" r="2" />
    <circle cx="280" cy="200" r="2" />
    <circle cx="320" cy="200" r="2" />
    <circle cx="360" cy="200" r="2" />
    
    <!-- Row 6 -->
    <circle cx="40" cy="240" r="2" />
    <circle cx="80" cy="240" r="2" />
    <circle cx="120" cy="240" r="2" />
    <circle cx="160" cy="240" r="2" />
    <circle cx="200" cy="240" r="2" />
    <circle cx="240" cy="240" r="2" />
    <circle cx="280" cy="240" r="2" />
    <circle cx="320" cy="240" r="2" />
    <circle cx="360" cy="240" r="2" />
    
    <!-- Row 7 -->
    <circle cx="40" cy="280" r="2" />
    <circle cx="80" cy="280" r="2" />
    <circle cx="120" cy="280" r="2" />
    <circle cx="160" cy="280" r="2" />
    <circle cx="200" cy="280" r="2" />
    <circle cx="240" cy="280" r="2" />
    <circle cx="280" cy="280" r="2" />
    <circle cx="320" cy="280" r="2" />
    <circle cx="360" cy="280" r="2" />
    
    <!-- Row 8 -->
    <circle cx="40" cy="320" r="2" />
    <circle cx="80" cy="320" r="2" />
    <circle cx="120" cy="320" r="2" />
    <circle cx="160" cy="320" r="2" />
    <circle cx="200" cy="320" r="2" />
    <circle cx="240" cy="320" r="2" />
    <circle cx="280" cy="320" r="2" />
    <circle cx="320" cy="320" r="2" />
    <circle cx="360" cy="320" r="2" />
    
    <!-- Row 9 -->
    <circle cx="40" cy="360" r="2" />
    <circle cx="80" cy="360" r="2" />
    <circle cx="120" cy="360" r="2" />
    <circle cx="160" cy="360" r="2" />
    <circle cx="200" cy="360" r="2" />
    <circle cx="240" cy="360" r="2" />
    <circle cx="280" cy="360" r="2" />
    <circle cx="320" cy="360" r="2" />
    <circle cx="360" cy="360" r="2" />
  </g>
</svg>
