<svg width="56" height="57" viewBox="0 0 56 57" fill="none" xmlns="http://www.w3.org/2000/svg">
<g clip-path="url(#clip0_2225_2)">
<path d="M0.0663572 29.917C-0.0186695 29.451 0.00228385 29.0551 0.00228385 28.5703V28.4421C7.62398 27.7882 15.9269 25.8684 22.1066 21.452C23.8798 22.2644 25.6236 22.1536 27.2964 21.3238C30.8012 24.8637 34.2407 27.3239 38.8291 28.7627C39.2989 29.9598 40.0464 30.879 41.0716 31.5203C39.833 34.5985 38.103 37.3133 35.8819 39.6646C32.599 37.2998 28.2645 39.0122 26.7839 42.4222C16.5166 42.3109 6.16835 37.8189 0.0663572 29.917ZM26.7197 46.4622C21.4784 49.1691 15.9464 50.6284 10.3176 50.3099C5.96381 46.6567 2.82646 41.8812 1.21963 36.907C8.29066 42.9844 17.6889 46.4527 26.7197 46.4622ZM38.3165 45.6927C44.2808 44.4486 49.7612 42.0504 54.2059 38.382C48.3721 53.5925 30.8036 60.5459 16.4043 54.0936C21.0785 53.4201 25.4694 51.8057 29.2184 49.6688C32.9651 51.8156 37.4239 49.5573 38.3165 45.6927ZM49.3367 30.0453C51.6325 29.8758 53.8711 29.7069 56 29.3399C55.9958 29.9131 55.9367 30.4773 55.9359 31.0072C51.9333 36.1297 45.9168 39.6294 39.9183 41.2678C42.1567 38.5503 43.8171 35.5314 44.9799 32.4822C46.808 32.245 48.3013 31.4052 49.3367 30.0453ZM50.3618 25.941C50.1091 24.0401 49.1582 22.4972 47.6708 21.5161C48.1409 17.1636 48.2184 12.9166 47.8631 8.81865C52.3503 13.451 55.0676 19.3636 55.8078 25.2356C54.1847 25.5777 52.3693 25.8128 50.3618 25.941ZM19.1594 18.5662C13.4995 22.1323 6.87227 23.8646 0.322651 24.402C1.95832 14.18 8.9208 5.73189 18.2624 2.27753C18.5162 5.59711 19.2849 8.80199 20.5049 11.5762C18.5462 13.5652 18.081 16.1152 19.1594 18.5662ZM30.1795 13.8207C33.1296 10.1578 35.5821 6.4149 36.971 2.02095C39.363 2.8333 41.52 3.88075 43.4421 5.1633C44.1135 10.4452 44.2068 15.7061 43.6984 20.6184C41.3777 21.0144 39.5533 22.4264 38.7649 24.466C35.3388 23.2258 32.5343 20.9162 30.0513 18.4379C30.675 16.829 30.6985 15.3209 30.1795 13.8207ZM24.221 10.0371C23.0289 7.09017 22.2508 4.23454 22.2348 1.12318C25.8094 0.300774 29.6686 0.328168 33.0627 0.994941C31.766 4.62495 29.7172 7.98934 27.5526 10.7425C26.791 10.4172 24.9358 9.69253 24.221 10.0371Z" fill="white" fill-opacity="0.8"/>
</g>
<defs>
<clipPath id="clip0_2225_2">
<rect width="56" height="56" fill="white" transform="translate(0 0.5)"/>
</clipPath>
</defs>
</svg>
