<svg width="56" height="57" viewBox="0 0 56 57" fill="none" xmlns="http://www.w3.org/2000/svg">
<path d="M48.9999 26.75H44.3333V25C44.3333 23.39 43.0266 22.0833 41.4166 22.0833H36.7499C35.1399 22.0833 33.8333 23.39 33.8333 25V26.75H29.7499V19.75H25.0833V15.0833H29.7499V7.5H46.6666C47.2854 7.5 47.8789 7.74583 48.3165 8.18342C48.7541 8.621 48.9999 9.21449 48.9999 9.83333V26.75Z" fill="white" fill-opacity="0.8"/>
<path d="M26.25 7.5V12.1667H24.5C24.3997 12.1667 24.2993 12.1807 24.2013 12.19C22.7313 12.3393 21.5833 14.157 21.5833 15.6667V19.75C21.5833 19.9507 21.6028 20.1467 21.6417 20.338C21.9147 21.668 23.0883 22.6667 24.5 22.6667H26.25V26.75H19.25V31.4167H14.5833V26.75H7V9.83333C7 9.21449 7.24583 8.621 7.68342 8.18342C8.121 7.74583 8.71449 7.5 9.33333 7.5H26.25Z" fill="white" fill-opacity="0.8"/>
<path d="M7 30.25H11.0833V32C11.0833 33.61 12.39 34.9167 14 34.9167H19.8333C21.4433 34.9167 22.75 33.61 22.75 32V30.25H26.25V37.8333H30.9167V42.5H26.25V49.5H9.33333C8.71449 49.5 8.121 49.2542 7.68342 48.8166C7.24583 48.379 7 47.7855 7 47.1667V30.25Z" fill="white" fill-opacity="0.8"/>
<path d="M29.75 49.5V44.8333H31.5C32.2735 44.8333 33.0154 44.5261 33.5624 43.9791C34.1094 43.4321 34.4167 42.6902 34.4167 41.9167V37.8333C34.4167 36.2233 33.11 34.9167 31.5 34.9167H29.75V30.25H36.75V25.5833H41.4167V30.25H49V47.1667C49 47.7855 48.7542 48.379 48.3166 48.8166C47.879 49.2542 47.2855 49.5 46.6667 49.5H29.75Z" fill="white" fill-opacity="0.8"/>
</svg>
