<svg width="309" height="261" viewBox="0 0 309 261" fill="none" xmlns="http://www.w3.org/2000/svg">
<g clip-path="url(#clip0_2088_20106)">
<path fill-rule="evenodd" clip-rule="evenodd" d="M63.2947 263.072C64.1085 263.603 64.2187 264.825 63.4796 265.548C63.0365 265.982 62.5121 266.332 62.054 266.751C61.0797 267.645 60.7055 268.807 61.1392 270.012C61.5754 271.223 62.5627 271.918 63.8792 272.264C65.4538 272.675 66.9411 272.373 68.4006 271.951C69.0089 271.775 69.4981 271.245 69.408 270.324C69.2404 268.615 69.3265 266.882 69.2104 265.165C69.15 264.277 69.8623 264.427 70.2529 264.306C71.2941 263.984 72.3765 263.634 73.4472 263.619C74.2098 263.607 74.9806 264.12 75.6872 264.458C74.4716 264.519 73.307 264.435 72.1661 264.563C71.7587 264.609 71.4086 265.167 71.0326 265.491C71.2968 265.73 71.5521 266.16 71.8269 266.173C72.8841 266.221 73.9483 266.155 75.0079 266.095C75.8442 266.048 76.1534 265.565 75.989 264.76C76.5283 266.089 76.2782 266.896 75.1863 267.419C75.0217 267.498 74.9116 267.682 74.7572 267.792C74.5745 267.921 74.3715 268.021 74.1773 268.134C74.2179 267.943 74.3582 267.69 74.284 267.569C73.497 266.297 72.2436 267.139 71.2121 266.977C71.0026 266.944 70.4944 267.5 70.473 267.809C70.3864 269.048 70.368 270.303 70.476 271.54C70.512 271.951 70.9254 272.521 71.3022 272.667C71.7871 272.854 72.475 272.9 72.6862 272.051C72.9377 271.039 73.2753 270.047 73.575 269.047C73.6175 268.905 73.657 268.762 73.6979 268.619C73.7374 268.764 73.8089 268.907 73.8113 269.052C73.8295 270.139 73.5985 271.369 74.7968 271.978C75.5648 272.367 76.4609 272.581 77.3232 272.694C79.0569 272.927 80.805 273.059 82.5506 273.186C83.1378 273.23 83.7472 273.095 83.7044 272.3C83.6397 271.094 83.7215 269.826 83.3676 268.702C82.9285 267.307 83.2634 265.933 84.0745 265.203C84.6858 264.652 86.1678 265.028 87.2593 265.068C87.6061 265.081 87.9407 265.347 88.2867 265.481C88.6898 265.637 89.4319 265.749 89.4462 265.927C89.4971 266.555 89.4739 267.306 89.1655 267.824C87.9028 269.947 88.098 271.583 89.6609 273.122C90.2633 273.714 91.4797 273.817 92.4359 273.89C94.0147 274.009 94.1135 273.908 94.3128 275.293C94.6328 277.51 94.9181 279.744 95.0305 281.98C95.152 284.398 95.0435 286.826 95.0768 289.249C95.0808 289.549 95.3415 289.844 95.4831 290.139C95.7438 289.963 96.0506 289.83 96.2563 289.606C96.892 288.911 97.0173 288.078 97.0081 287.14C96.9651 282.843 96.9838 278.546 96.9932 274.247C96.9951 273.297 96.9055 272.502 95.6093 272.946C95.5955 272.949 95.4555 272.746 95.4777 272.67C95.8104 271.526 95.3378 271.129 94.224 271.261C93.96 271.294 93.6834 271.215 93.4124 271.194C92.7377 271.137 92.0582 271.115 91.3901 271.015C90.9986 270.958 90.6255 270.777 90.2441 270.653C90.5178 270.537 90.7869 270.335 91.066 270.321C91.922 270.277 92.787 270.245 93.6387 270.32C94.8237 270.423 96.014 270.561 97.1749 270.812C97.8956 270.966 98.4676 271.334 98.4585 272.316C98.4124 277.175 98.4903 282.037 98.4178 286.896C98.3734 289.871 95.8134 292.356 92.9546 292.283C91.1364 292.237 89.2186 292.997 87.5038 292.637C83.9002 291.886 80.2567 292.261 76.6631 291.777C75.4606 291.615 74.2342 291.639 73.0254 291.515C70.1403 291.215 67.2619 290.85 64.3749 290.569C62.8464 290.423 61.3057 290.401 59.771 290.317C56.9016 290.158 54.0321 290.003 51.1638 289.83C50.0373 289.763 48.3223 288.135 48.2384 287.005C47.9747 283.451 47.6065 279.895 47.5605 276.339C47.5345 274.314 47.9403 272.327 49.4092 270.596C50.5715 269.225 51.9319 268.804 53.5291 268.622C53.8069 268.59 54.0917 268.623 54.373 268.616C54.6589 268.609 54.9445 268.589 55.2301 268.576C54.9938 268.705 54.7626 268.845 54.5203 268.962C53.5819 269.414 52.6214 269.825 51.7107 270.326C51.4454 270.472 51.2204 270.85 51.1673 271.156C51.1397 271.315 51.5011 271.683 51.7285 271.724C53.1528 271.978 54.5682 272.356 55.8195 271.08C56.8864 269.994 57.3307 268.478 56.6836 267.065C56.2229 266.058 55.9908 265.025 56.5791 264.045C56.8044 263.67 57.4075 263.533 57.8169 263.256C59.5049 262.11 61.6985 262.031 63.2947 263.072ZM49.4439 272.475C49.2807 272.738 48.9839 272.994 48.9761 273.262C48.9311 274.801 48.8995 276.342 48.9663 277.878C49.0841 280.585 49.3064 283.286 49.4255 285.991C49.4964 287.599 50.2122 288.589 51.7946 288.86C53.495 289.149 55.2117 289.56 56.9189 289.546C59.8582 289.525 62.6859 290.204 65.5675 290.517C68.6965 290.858 71.8597 290.907 75.0101 291.028C76.629 291.093 78.2534 291.009 79.8739 291.047C82.0923 291.099 84.3095 291.199 86.5267 291.285C86.7135 291.293 86.8968 291.38 87.0836 291.388C88.1909 291.439 89.299 291.51 90.4057 291.493C90.5914 291.491 90.7717 291.104 90.9547 290.896C90.762 290.782 90.5771 290.59 90.3759 290.571C89.2058 290.463 87.9743 290.598 86.8698 290.282C82.5157 289.033 78.003 289.476 73.5861 288.919C71.8085 288.697 69.9467 289.214 68.1486 289.073C64.7274 288.806 61.3168 288.359 57.9168 287.883C56.2794 287.654 54.6762 287.183 52.9371 286.699C52.414 286.074 51.6232 285.52 51.4261 284.803C51.062 283.481 51.0025 282.067 50.8947 280.682C50.7001 278.184 50.5901 275.674 50.3627 273.178C50.3392 272.919 49.7634 272.708 49.4439 272.475ZM53.1607 272.705C52.0069 272.911 51.7285 273.611 51.845 274.652C51.953 275.617 52.0445 276.591 52.0856 277.562C52.1861 279.939 52.2321 282.316 52.3458 284.69C52.3824 285.455 52.665 286.08 53.5901 286.231C55.3129 286.51 57.0131 286.961 58.7433 287.159C61.5689 287.483 64.4085 287.702 67.2468 287.897C71.2857 288.173 75.3287 288.389 79.3704 288.627C79.6108 288.641 79.8544 288.608 80.0938 288.632C83.4185 288.949 86.7433 289.268 90.067 289.598C90.4815 289.638 90.8954 289.722 91.2999 289.822C93.0837 290.271 94.1187 289.509 94.0819 287.697C94.0618 286.726 93.8989 285.758 93.8577 284.784C93.7573 282.41 93.6858 280.033 93.6111 277.656C93.5288 275.047 92.4375 274.49 90.1569 274.428C89.4135 274.406 88.7667 274.804 88.7941 275.693C88.8198 276.545 89.0434 277.397 89.0041 278.243C88.9007 280.469 88.7581 282.694 88.5122 284.909C88.4183 285.753 88.2339 286.85 87.6665 287.31C87.0774 287.783 86.1299 288.462 85.1325 287.9C84.2746 287.418 83.9749 286.626 83.9494 285.674C83.8845 283.243 83.7935 280.812 83.7131 278.14C83.7935 277.532 83.8528 276.918 83.9586 276.312C84.218 274.836 83.4827 273.952 82.0143 273.914C80.0767 273.865 78.1391 273.787 76.204 273.673C74.6035 273.579 74.2125 273.863 74.3143 275.404C74.4031 276.748 74.65 278.081 74.7738 279.422C74.8926 280.712 75.0442 282.01 74.9849 283.297C74.9503 284.049 74.7077 284.874 73.8351 285.26C72.4331 285.88 70.688 285.433 70.0038 284.087C69.4399 282.978 69.101 281.659 69.0371 280.415C68.9364 278.449 69.17 276.467 69.222 274.493C69.2501 273.422 68.7647 273.092 67.7292 273.365C67.5072 273.424 67.2538 273.479 67.0378 273.43C65.679 273.127 64.3386 272.708 62.9658 272.527C62.5199 272.467 61.61 272.959 61.5729 273.278C61.4154 274.625 61.25 276.064 61.561 277.354C62.1525 279.806 61.5207 281.969 60.5063 284.1C60.388 284.349 59.798 284.373 59.4269 284.503C59.5636 284.303 59.7125 284.111 59.8338 283.903C59.9264 283.746 60.0246 283.57 60.0514 283.395C60.3035 281.729 60.5937 280.066 60.7618 278.392C60.8609 277.402 60.1665 276.824 59.1139 276.815C58.2289 276.807 57.0643 277.754 57.1801 278.508C57.433 280.155 57.7847 281.788 58.1085 283.422C58.1826 283.797 58.3074 284.163 58.409 284.53C57.9999 284.254 57.5421 284.03 57.1983 283.692C56.9473 283.443 56.7348 283.054 56.6985 282.708C56.5669 281.461 56.4762 280.209 56.447 278.954C56.4069 277.229 56.4519 275.501 56.4218 273.776C56.4172 273.5 56.2756 273.17 56.088 272.967C55.2044 272.007 54.1764 272.521 53.1607 272.705ZM86.4526 276.859C85.9953 276.91 85.3618 277.327 85.2118 277.729C84.9503 278.43 84.9804 279.246 84.9246 280.017C84.8279 281.348 84.7876 282.683 84.6704 284.011C84.5621 285.233 84.6785 286.391 85.7671 287.129C86.057 287.326 86.7958 287.28 87.0238 287.051C87.3535 286.715 87.405 286.107 87.5753 285.374C87.6557 283 87.8013 280.623 87.7734 278.251C87.7658 277.613 87.3519 276.753 86.4526 276.859ZM142.583 205.7C143.837 205.711 145.094 205.819 146.343 205.942C147.075 206.014 147.374 206.492 147.457 207.238C147.589 208.416 147.159 209.407 146.691 210.427C146.056 211.81 145.487 213.223 144.891 214.624C144.848 214.726 144.818 214.835 144.783 214.941C145.366 215.072 145.954 215.315 146.53 215.292C146.882 215.277 147.385 214.925 147.529 214.597C148.143 213.198 148.642 211.75 149.203 210.327C149.284 210.121 149.528 209.976 149.602 209.77C150.344 207.684 151.965 207.337 153.944 207.342C155.925 207.348 157.327 208.41 158.138 209.87C158.932 211.298 159.122 213.076 159.493 214.719C159.803 216.09 160.085 217.481 160.21 218.878C160.417 221.201 159.509 223.247 158.417 225.238C157.684 226.575 156.744 227.904 156.453 229.348C156.152 230.84 155.832 232.389 156.296 234.056C156.848 236.039 156.854 238.174 157.09 240.245C157.113 240.443 157.166 240.686 157.082 240.841C155.726 243.341 157.017 245.832 157.117 248.322C157.13 248.659 157.391 248.798 156.806 248.878C155.297 249.085 153.857 249.405 152.263 249.175C151.117 249.01 149.855 249.651 148.585 249.992C147.441 250.771 146.48 253.171 146.993 254.185C147.166 254.528 147.768 254.827 148.186 254.844C149.993 254.915 151.806 254.849 153.615 254.885C154.508 254.903 155.418 254.954 156.281 255.157C156.609 255.234 157.018 255.762 157.053 256.118C157.128 256.861 157.388 257.774 156.457 258.234C156.097 258.412 155.65 258.46 155.238 258.483C153.279 258.589 152.295 259.528 152.025 261.602C151.859 262.875 151.669 264.146 151.584 265.424C151.573 265.585 152.118 265.858 152.442 265.945C152.779 266.036 153.16 265.956 153.522 265.967C156.063 266.044 158.606 266.088 161.144 266.219C163.023 266.316 164.877 268.357 165.254 270.219C165.489 271.38 165.288 272.635 165.246 273.846C165.225 274.466 165.06 275.082 165.092 275.693C165.104 275.918 165.473 276.266 165.723 276.31C167.385 276.596 169.074 276.737 170.723 277.08C172.109 277.367 173.44 277.905 174.816 278.251C176.609 278.698 178.407 279.165 180.23 279.444C183.389 279.928 186.579 280.217 189.736 280.712C190.503 280.831 191.193 281.439 191.919 281.823C191.835 281.924 191.769 282.072 191.663 282.113C190.091 282.686 188.526 283.286 186.933 283.797C184.276 284.647 181.504 284.747 178.755 285.077C175.234 285.496 171.705 286.031 168.192 285.685C161.34 285.012 154.482 285.469 147.634 285.22C143.738 285.079 139.849 284.665 135.967 284.273C132.827 283.954 129.681 283.6 126.579 283.038C124.915 282.735 123.319 282.002 121.724 281.385C119.403 280.488 117.119 279.49 114.799 278.589C113.931 278.251 112.947 278.184 112.118 277.784C110.373 276.945 110.416 275.799 111.713 274.452C113.407 272.694 115.475 272.359 117.693 272.235C117.894 272.224 118.109 272.189 118.294 272.243C119.063 272.462 119.282 272.21 119.215 271.431C119.114 270.247 119.23 269.039 119.074 267.865C118.983 267.177 118.619 266.489 118.245 265.883C117.261 264.289 115.97 262.862 115.698 260.906C115.667 260.681 115.599 260.46 115.578 260.234C115.412 258.453 115.125 256.671 115.128 254.89C115.131 253.027 115.326 251.153 115.596 249.307C115.999 246.562 116.494 243.828 117.034 241.107C117.91 236.698 119.198 232.41 121.142 228.346C121.674 227.234 122.414 226.223 123.008 225.138C124.012 223.307 124.751 221.279 126.017 219.657C127.304 218.011 128.012 215.786 130.156 214.888C131.081 214.5 132.086 213.869 132.992 213.961C134.749 214.14 134.898 212.999 135.111 211.899C135.834 208.171 138.78 205.67 142.583 205.7ZM71.5234 280.19C70.7232 280.174 70.3184 280.49 70.4237 281.361C70.48 281.826 70.2949 282.332 70.4061 282.773C70.5602 283.381 70.7427 284.236 71.1818 284.46C71.7831 284.766 72.7376 284.812 73.3562 284.544C74.1321 284.208 74.3658 281.967 73.7897 280.912C73.3906 280.179 72.5673 280.082 71.5234 280.19ZM130.09 216.649C129.077 217.861 128.004 219.052 127.192 220.394C125.918 222.497 124.85 224.724 123.672 226.887C123.26 227.645 122.676 228.325 122.353 229.115C121.127 232.113 119.658 235.016 119.168 238.292C118.742 241.134 118.051 243.935 117.514 246.761C117.23 248.26 116.946 249.767 116.807 251.284C116.693 252.516 116.656 253.788 116.831 255.007C117.109 256.95 117.688 258.849 117.966 260.791C118.339 263.401 119.485 265.322 122.119 266.102C123.306 266.453 124.722 265.804 125.747 266.922C125.831 267.014 126.032 266.998 126.179 267.033C126.008 267.079 125.816 267.088 125.671 267.177C124.52 267.876 123.343 267.726 122.097 267.447C121.506 267.314 120.538 267.073 120.642 268.335C120.736 269.479 120.569 270.71 120.932 271.756C121.87 274.457 123.461 276.723 126.601 277.026C129.739 277.327 132.9 277.443 136.053 277.527C143.308 277.716 150.588 277.078 157.812 278.065C159.697 278.322 161.611 277.921 163.452 278.503C163.58 278.543 163.703 278.6 163.828 278.646C163.714 278.76 163.614 278.949 163.483 278.973C162.468 279.155 161.449 279.422 160.426 279.444C157.571 279.509 154.714 279.474 151.858 279.457C151.483 279.455 151.111 279.292 150.735 279.271C149.173 279.182 147.584 278.908 146.056 279.103C144.371 279.319 142.765 279.419 141.085 279.071C139.793 278.8 138.435 278.743 137.11 278.773C135.846 278.8 134.573 279.271 133.33 279.184C130.678 279 128.024 278.684 125.405 278.23C123.254 277.857 121.464 276.818 120.333 274.771C120.039 274.238 119.182 273.86 118.52 273.73C117.832 273.592 117.033 273.73 116.345 273.949C115.359 274.263 114.387 274.682 113.494 275.204C113 275.49 113.256 276.632 113.796 276.807C115.071 277.229 116.368 277.586 117.635 278.027C119.426 278.654 121.285 279.165 122.957 280.028C125.435 281.31 128.099 281.542 130.764 281.869C133.072 282.153 135.391 282.353 137.704 282.602C140.629 282.919 143.548 283.295 146.478 283.549C148.448 283.719 150.433 283.803 152.411 283.789C156.159 283.768 159.907 283.605 163.656 283.576C169.519 283.53 175.39 283.743 181.219 282.848C183.004 282.573 184.8 282.367 186.588 282.105C186.743 282.083 186.871 281.869 187.011 281.745C186.865 281.707 186.72 281.648 186.572 281.642C184.434 281.556 182.294 281.477 180.155 281.396C179.482 281.369 178.762 281.491 178.144 281.291C175.878 280.563 173.67 279.649 171.395 278.954C169.26 278.3 167.099 277.516 164.809 278.384C163.964 278.703 163.68 278.2 163.613 277.467C163.594 277.254 163.644 277.032 163.605 276.824C163.458 276.045 163.196 275.274 163.149 274.49C163.071 273.208 163.129 271.921 163.127 270.634C163.125 269.547 162.786 268.666 161.612 268.383C160.802 268.187 159.981 267.941 159.158 267.914C155.371 267.789 151.582 267.737 147.793 267.652C144.487 267.577 141.182 267.493 137.876 267.412C137.257 267.396 136.536 267.622 136.331 266.691C136.102 265.651 137.046 265.798 137.535 265.491C137.622 265.436 137.785 265.517 137.891 265.478C138.751 265.154 139.01 264.845 138.852 263.66C138.495 260.97 136.451 258.408 138.018 255.528C138.117 255.347 138.132 255.121 138.186 254.916C138.454 254.999 138.791 255.011 138.97 255.186C139.144 255.355 139.256 255.707 139.217 255.95C139.124 256.532 138.7 257.146 138.811 257.662C139.273 259.823 139.856 261.96 140.45 264.09C140.703 264.995 141.214 265.845 142.24 265.943C144.621 266.172 147.012 266.295 149.4 266.439C149.784 266.462 150.175 266.376 150.562 266.34C150.315 266.004 150.074 265.664 149.819 265.334C149.721 265.208 149.594 265.104 149.48 264.991C146.99 262.529 145.638 259.576 145.767 256.048C145.815 254.704 146.043 253.364 146.238 252.029C146.447 250.597 146.506 249.094 147.015 247.769C147.508 246.484 147.274 245.103 148.085 243.816C149.055 242.279 149.349 240.333 150.122 238.649C150.875 237.01 151.863 235.478 152.748 234.019C151.898 236.315 151.052 238.612 150.197 240.905C149.84 241.861 150.309 242.652 151.379 242.811C151.733 242.863 152.104 242.85 152.462 242.814C154.449 242.615 156.02 241.534 155.637 239.405C155.356 237.846 155.116 236.263 154.625 234.767C154.415 234.126 153.84 233.168 152.748 233.778C153.913 231.891 154.993 229.944 156.266 228.132C157.739 226.037 158.709 223.83 158.532 221.232C158.469 220.303 158.267 219.651 156.973 219.618C154.945 219.567 153.66 220.741 152.352 221.904C149.551 224.392 148.462 228.009 146.472 231.035C145.181 232.998 145.259 235.645 143.337 237.293C143.285 237.338 143.27 237.424 143.237 237.491C143.189 237.407 143.094 237.318 143.1 237.238C143.153 236.58 143.14 235.903 143.304 235.273C144.242 231.654 146.192 228.491 148.012 225.292C149.744 222.248 152 219.64 155.355 218.224C155.611 218.116 155.85 217.965 156.096 217.834C155.82 217.724 155.552 217.549 155.267 217.514C153.156 217.254 151.048 216.952 148.929 216.795C144.969 216.502 141.004 216.294 137.04 216.059C135.505 215.967 133.946 216.028 132.441 215.771C131.375 215.589 130.68 215.943 130.09 216.649ZM71.302 272.989C70.8799 273.119 70.2456 273.589 70.2516 273.895C70.2748 275.071 70.5177 276.245 70.6785 277.659C70.5572 278.908 71.4579 278.792 72.2062 278.725C72.8207 278.668 73.8181 278.952 73.5742 277.697C73.3367 276.475 73.1675 275.234 72.8207 274.044C72.6334 273.4 72.1431 272.729 71.302 272.989ZM162.065 274.906C162.342 274.912 162.613 275.185 162.886 275.336C162.628 275.588 162.381 275.855 162.103 276.085C161.999 276.172 161.823 276.172 161.619 276.272C160.878 276.331 160.198 276.339 159.517 276.329C159.058 276.323 158.547 276.55 158.429 275.704C158.393 275.447 157.462 275.309 156.936 275.131C156.759 275.071 156.567 275.055 156.382 275.02C156.595 274.974 156.808 274.893 157.021 274.893C158.703 274.882 160.384 274.866 162.065 274.906ZM85.7776 274.168C85.5689 274.187 85.3667 274.279 85.1615 274.338C85.2822 274.682 85.4027 275.025 85.6442 275.488C85.8185 275.745 86.0099 276.223 86.164 276.212C86.7709 276.166 87.3725 275.985 87.957 275.796C88.0257 275.774 88.0569 275.347 87.9686 275.179C87.5051 274.298 86.6976 274.084 85.7776 274.168ZM57.6098 273.184C57.4314 273.346 57.5524 273.936 57.6626 274.29C57.7812 274.674 58.0462 275.012 58.3681 275.488C59.298 276.088 59.8942 275.947 60.2659 275.039C60.8471 273.622 60.5266 273.051 59.0549 272.529C58.2844 272.256 57.9807 272.848 57.6098 273.184ZM84.9251 268.07C84.7305 268.095 84.4413 268.616 84.4649 268.885C84.5597 269.982 84.8713 271.069 84.8891 272.162C84.9075 273.287 85.7427 273.37 86.3927 273.389C87.0357 273.408 87.7315 273.046 87.5753 271.872C87.5753 271.153 87.3481 270.325 87.631 269.744C88.0111 268.964 87.8119 268.258 87.3007 268.072C86.5955 267.816 85.7146 267.968 84.9251 268.07ZM160.05 270.969C160.392 271.348 160.674 271.664 160.955 271.983C160.566 272.148 160.18 272.443 159.787 272.454C155.84 272.57 151.892 272.621 147.945 272.724C146.529 272.759 145.117 272.908 143.701 272.94C143.135 272.954 142.545 272.851 142.003 272.684C141.639 272.573 141.339 272.251 141.01 272.024C141.421 271.853 141.829 271.545 142.245 271.534C144.294 271.483 146.346 271.54 148.397 271.505C151.581 271.448 154.765 271.367 157.947 271.256C158.631 271.231 159.309 271.029 160.05 270.969ZM58.4718 266.283C58.0922 266.675 57.9206 266.935 57.8843 267.408C57.8074 268.414 57.7243 269.42 57.6439 270.667C57.8415 271.026 57.959 271.491 58.2587 271.71C58.5633 271.932 59.0601 272.01 59.448 271.962C59.7515 271.921 60.2369 271.615 60.2629 271.383C60.4169 270.026 60.5214 268.656 60.5092 267.291C60.5046 266.771 60.2856 266.049 59.9099 265.795C59.5425 265.547 58.9902 265.748 58.4718 266.283ZM81.3437 269.83C81.4236 269.851 81.5086 269.972 81.5283 270.06C81.5405 270.113 81.4312 270.254 81.3773 270.254C79.5006 270.238 77.6242 270.21 75.6872 270.124C76.0589 269.954 76.4926 269.849 76.923 269.733C78.4066 269.333 79.8788 269.455 81.3437 269.83ZM63.592 268.877C64.5081 268.886 65.4251 268.924 66.3382 268.999C66.5394 269.015 66.7162 269.235 66.9222 269.316C67.1063 269.387 67.3153 269.397 67.5132 269.434C67.3053 269.564 67.0881 269.817 66.8911 269.802C65.8978 269.727 64.9096 269.582 63.8595 269.401C63.6107 269.313 63.422 269.285 63.2336 269.258C63.3532 269.125 63.4737 268.876 63.592 268.877ZM86.3952 265.641C86.0646 265.654 85.7378 265.769 85.4097 265.838C85.5632 266.202 85.6241 266.769 85.8886 266.889C86.5205 267.175 87.2482 267.251 88.1787 267.412L88.2566 267.206C88.2702 267.171 88.2846 267.138 88.3005 267.105C88.4584 266.78 88.6213 266.458 88.7822 266.134C88.4107 265.998 88.0488 265.816 87.6657 265.736C87.2523 265.651 86.8178 265.626 86.3952 265.641ZM62.1095 263.554C60.7886 263.588 59.4645 263.582 58.1496 263.688C57.8889 263.709 57.6631 264.163 57.4211 264.416C57.8207 264.611 58.2127 264.825 58.6231 264.994C58.8627 265.092 59.131 265.16 59.3884 265.169L60.3754 265.203C61.1981 265.23 62.0209 265.246 62.8383 265.19C63.076 265.174 63.2752 264.597 63.4924 264.277C63.112 264.037 62.7314 263.795 62.1095 263.554ZM147.885 258.294C147.769 258.28 147.486 258.799 147.459 259.091C147.394 259.763 147.267 260.507 147.482 261.11C147.737 261.826 148.318 262.427 148.777 263.063C148.805 263.101 149.106 263.03 149.113 262.983C149.292 261.854 149.481 260.725 149.584 259.588C149.605 259.358 149.288 259.099 149.248 258.732C148.795 258.572 148.35 258.348 147.885 258.294ZM1.34942 258.138C1.34942 258.138 9.45287 258.08 21.2714 258.15C24.7104 258.172 28.4643 258.225 32.4264 258.276C39.6898 258.371 47.6474 258.514 55.6347 258.625L58.4538 258.663C61.5732 258.701 64.6852 258.735 67.7488 258.757C72.3261 258.788 76.7968 258.796 81.0302 258.808C97.3324 258.855 110.113 258.869 111.823 258.871L112.018 258.871C112.243 258.873 112.424 259.057 112.422 259.282C112.422 259.504 112.238 259.686 112.013 259.686C112.013 259.686 98.557 259.514 81.0277 259.328C78.3464 259.3 75.5698 259.268 72.7313 259.24L71.7257 259.217C75.1517 259.29 78.5777 259.377 82.0037 259.455C85.5906 259.537 89.2085 259.351 92.7569 259.762C97.4454 260.306 102.123 260.067 106.804 260.178C107.005 260.183 107.235 260.116 107.402 260.191C107.887 260.408 108.347 260.681 108.817 260.932C108.341 261.003 107.863 261.143 107.389 261.131C105.33 261.079 103.272 260.982 101.093 260.902C99.1618 260.902 97.349 260.964 95.5422 260.886C93.4338 260.795 91.3321 260.481 89.2245 260.447C86.9269 260.409 84.6235 260.683 82.3262 260.639C78.1275 260.557 73.9315 260.339 69.7342 260.18C69.3606 260.166 68.9789 260.21 68.6164 260.144C68.4772 260.118 68.252 259.776 68.2877 259.721C68.4177 259.519 68.6345 259.247 68.8305 259.237C69.047 259.226 69.2636 259.218 69.4804 259.212C68.9049 259.207 68.3265 259.203 67.7464 259.2C65.5497 259.186 63.3281 259.178 61.0967 259.173C61.1208 259.197 61.1454 259.22 61.1701 259.24C60.9825 259.312 60.8 259.413 60.6056 259.449C60.2661 259.512 59.9191 259.536 59.5146 259.636C59.0536 259.697 58.6518 259.714 58.2525 259.689C58.0622 259.677 57.8764 259.587 57.6886 259.531C57.7646 259.428 57.8366 259.295 57.9096 259.168C50.1018 259.163 42.263 259.196 35.0111 259.2L28.8251 259.199C26.1779 259.198 23.645 259.194 21.2642 259.176C9.44561 259.086 1.34457 258.919 1.34457 258.919C1.12903 258.919 0.954659 258.742 0.957056 258.525C0.957056 258.309 1.13387 258.135 1.34942 258.138ZM158.447 259.202C158.447 259.202 168.437 259.159 183.006 259.248C187.247 259.272 191.878 259.333 196.76 259.391C206.767 259.509 217.847 259.691 228.849 259.817C232.695 259.86 236.531 259.901 240.309 259.928C245.952 259.967 251.464 259.979 256.683 259.998C276.783 260.072 292.54 260.107 294.648 260.111L294.888 260.112C295.111 260.114 295.292 260.296 295.292 260.52C295.29 260.745 295.106 260.927 294.88 260.924C294.88 260.924 278.291 260.733 256.678 260.52C251.459 260.467 245.95 260.407 240.307 260.368C236.529 260.344 232.69 260.332 228.844 260.325C217.842 260.3 206.762 260.332 196.753 260.315C191.87 260.305 187.24 260.303 182.999 260.271C168.721 260.167 158.843 259.991 158.454 259.984L158.442 259.983C158.226 259.983 158.052 259.807 158.052 259.592C158.054 259.374 158.231 259.2 158.447 259.202ZM183.186 257.543C188.422 257.567 193.658 257.695 198.895 257.766C205.378 257.854 211.862 257.996 218.345 257.982C221.792 257.974 225.238 257.576 228.686 257.554C233.318 257.524 237.952 257.679 242.585 257.771C245.891 257.836 249.196 257.964 252.502 257.993C254.036 258.006 255.573 257.771 257.108 257.784C260.333 257.811 263.558 257.923 266.783 258.011C269.405 258.082 272.026 258.191 274.648 258.243C276.512 258.28 278.377 258.219 280.241 258.258C282.541 258.305 284.841 258.397 287.139 258.517C287.329 258.527 287.644 258.904 287.64 259.106C287.637 259.306 287.301 259.673 287.114 259.671C282.923 259.624 278.733 259.547 274.543 259.447C273.529 259.423 272.519 259.254 271.505 259.222C268.28 259.121 265.055 258.987 261.83 258.991C258.162 258.995 254.494 259.198 250.827 259.187C249.002 259.182 247.181 258.843 245.354 258.753C244.468 258.71 243.571 258.961 242.679 258.963C231.496 258.979 220.313 259.003 209.13 258.963C201.721 258.937 194.312 258.812 186.783 258.732C184.168 258.732 181.672 258.669 179.181 258.749C176.59 258.833 174.005 259.155 171.415 259.18C169.593 259.198 167.769 258.795 165.943 258.759C164.007 258.72 162.068 258.92 160.129 258.955C159.614 258.965 159.094 258.755 158.576 258.646C159.028 258.434 159.492 258.243 159.93 258.004C160.926 257.461 161.93 257.664 163.014 257.706C167.03 257.861 171.057 257.797 175.079 257.758C177.782 257.731 180.484 257.53 183.186 257.543ZM98.064 245.965C98.1885 246.227 98.384 246.479 98.4254 246.753C98.6138 248.007 98.7543 249.269 98.9227 250.526C98.9882 251.017 98.9844 251.547 99.1818 251.983C99.5863 252.877 100.392 252.357 101.043 252.396C102.602 252.489 104.166 252.545 105.712 252.744C106.091 252.793 106.49 253.286 106.724 253.669C106.927 254.001 106.909 254.467 106.988 254.874C106.632 254.671 106.26 254.49 105.928 254.252C105.793 254.154 105.786 253.852 105.65 253.785C105.32 253.622 104.949 253.542 104.594 253.428C104.634 253.739 104.595 254.09 104.728 254.354C105.165 255.22 105.71 256.034 106.125 256.91C106.417 257.529 106.956 257.742 107.55 257.948C108.07 257.494 108.3 257.096 107.919 256.469C107.764 256.213 107.894 255.785 107.894 255.435C108.01 255.489 108.151 255.519 108.239 255.602C108.523 255.871 108.966 256.129 109.022 256.448C109.151 257.177 109.409 258.051 108.446 258.493C107.501 258.926 106.577 258.916 105.752 258.199C105.016 257.56 104.3 256.895 103.56 256.26C102.899 255.692 102.2 255.804 101.426 256.082C100.548 256.399 99.6193 256.577 98.7053 256.784C98.6479 256.797 98.4714 256.546 98.4457 256.401C97.9494 253.592 97.4857 250.781 97.6998 247.908C97.721 247.627 97.4413 247.304 97.5033 247.05C97.5967 246.665 97.868 246.324 98.064 245.965ZM69.6546 102.801C69.6083 102.966 69.6159 103.194 69.5073 103.288C67.9539 104.629 67.3426 106.47 66.8957 108.356C66.6563 109.367 66.613 110.437 66.5881 111.482C66.5424 113.424 66.6057 115.367 66.5673 117.309C66.5188 119.767 66.3889 122.224 66.339 124.682C66.2405 129.55 66.2072 134.42 66.0821 139.287C65.97 143.641 65.7851 147.993 65.6048 152.346C65.4678 155.655 65.3111 158.964 65.1205 162.27C64.9061 165.989 64.6511 169.705 64.4006 173.421C64.1689 176.858 63.9017 180.292 63.6892 183.729C63.6215 184.823 63.7447 185.93 63.6667 187.023C63.3743 191.111 63.027 195.194 62.7173 199.281C62.6101 200.692 62.4861 202.106 62.4823 203.52C62.4606 212.037 62.4715 220.555 62.4715 229.072C62.4715 230.572 62.4409 232.073 62.4812 233.573C62.514 234.786 62.6358 235.997 62.7105 237.21C62.7276 237.49 62.7094 237.772 62.714 238.053C62.7186 238.356 62.7308 238.659 62.7397 238.962C62.972 238.641 63.3952 238.328 63.4084 237.999C63.6107 233.005 63.7539 228.009 63.9225 223.013C63.987 221.104 64.1112 219.196 64.1527 217.286C64.1927 215.425 64.138 213.562 64.1659 211.7C64.232 207.274 64.2905 202.847 64.4115 198.421C64.5317 194.027 64.7228 189.635 64.8861 185.242C64.9624 183.186 65.0249 181.129 65.1321 179.075C65.2713 176.408 65.4808 173.745 65.6005 171.078C65.7218 168.381 65.7397 165.679 65.8596 162.982C65.9817 160.235 66.1655 157.49 66.3358 154.744C66.4863 152.319 66.6707 149.896 66.8125 147.471C66.9896 144.445 67.126 141.416 67.3031 138.39C67.4449 135.965 67.612 133.54 67.7842 131.117C68.0167 127.841 68.3151 124.57 68.491 121.291C68.6443 118.436 68.6537 115.572 68.7544 112.714C68.7915 111.661 68.9058 110.61 68.9932 109.56C69.0019 109.453 69.0698 109.352 69.1102 109.249C69.1503 109.353 69.2028 109.454 69.2279 109.561C69.3143 109.929 69.4602 110.298 69.4613 110.666C69.4762 116.291 69.5845 121.919 69.4296 127.54C69.3357 130.948 68.8216 134.345 68.5086 137.748C68.3337 139.649 68.2325 141.558 68.0105 143.453C67.7609 145.583 67.4609 147.71 67.0879 149.822C66.8835 150.979 67.8291 153.516 69.0658 154.265C71.7541 155.892 74.6506 156.434 77.7804 155.824C79.6265 155.465 81.5124 155.116 83.3796 155.121C84.7757 155.124 86.1705 155.699 87.5642 156.027C87.6421 156.045 87.7041 156.131 87.7737 156.186C87.7041 156.212 87.6362 156.251 87.5644 156.261C86.9545 156.345 86.3443 156.492 85.7338 156.494C80.1831 156.512 74.6322 156.504 69.0815 156.505C67.5706 156.505 67.3605 156.77 67.2877 158.211C67.0792 162.331 66.8358 166.45 66.561 170.566C66.4952 171.551 66.2532 172.524 66.0924 173.623C66.0924 176.435 66.1547 179.129 66.0759 181.818C65.986 184.888 65.7735 187.953 65.6081 191.021C65.5361 192.354 65.3931 193.685 65.3772 195.019C65.2789 203.302 65.2429 211.586 65.1091 219.868C65.0561 223.138 64.7242 226.404 64.6695 229.674C64.6248 232.33 64.8227 234.99 64.8787 237.649C64.9139 239.309 64.8557 240.971 64.8926 242.632C64.9451 245.01 65.0079 247.389 65.143 249.763C65.2104 250.947 65.555 252.119 65.5824 253.301C65.6159 254.752 65.453 256.207 65.3601 257.66C65.3525 257.78 65.1909 258.001 65.1698 257.993C64.827 257.863 64.3097 257.789 64.1935 257.537C63.7141 256.493 63.1499 255.423 62.9937 254.309C62.5584 251.204 62.3001 248.073 61.9942 244.951C61.8799 243.782 61.8214 242.607 61.7486 241.435C61.5838 238.77 61.414 236.105 61.2784 233.438C61.2597 233.074 61.5123 232.697 61.492 232.334C61.3582 229.948 61.1823 227.565 61.0258 225.18C61.0074 224.9 61.0233 224.618 61.0233 224.337C61.0233 220.52 60.9944 216.703 61.0336 212.886C61.0588 210.428 60.8782 207.913 61.3298 205.525C62.2067 200.889 62.1198 196.234 62.2411 191.57C62.351 187.336 62.3228 183.08 62.7809 178.88C63.1954 175.079 63.4144 171.297 63.475 167.481C63.5129 165.087 64.0048 162.703 64.1397 160.306C64.3094 157.291 64.0395 154.228 64.4556 151.254C65.7158 142.245 64.8422 133.205 65.127 124.186C65.2058 121.688 65.3793 119.189 65.3414 116.693C65.3062 114.387 65.0769 112.082 64.875 109.782C64.735 108.19 65.5658 106.943 66.2224 105.634C66.8537 104.375 68.0741 103.733 69.18 102.984C69.3167 102.891 69.4954 102.86 69.6546 102.801ZM90.7977 235.606C91.8616 235.676 92.9118 235.933 93.9736 236.063C96.0804 236.322 98.1885 236.576 100.301 236.777C100.968 236.841 101.927 236.659 101.984 237.44C102.037 238.176 101.681 239.212 101.133 239.662C100.207 240.421 99.0034 240.86 97.8847 241.363C96.5268 241.973 96.1429 242.823 96.2287 244.28C96.314 245.721 96.0341 247.181 96.0411 248.631C96.0503 250.524 96.1857 252.416 96.2631 254.308C96.2693 254.465 96.2428 254.76 96.2403 254.76C94.8285 254.706 95.5392 256.206 94.8402 256.669C94.7116 256.755 94.6344 256.917 94.5334 257.044C94.4668 256.887 94.3537 256.732 94.3415 256.571C94.2473 255.321 94.1674 254.071 94.094 252.82C93.9941 251.12 94.1907 249.341 93.7462 247.738C92.9854 244.996 91.8259 242.363 90.7736 239.625C90.3445 238.794 89.92 238.045 89.6209 237.249C89.2399 236.234 89.7264 235.535 90.7977 235.606ZM153.01 256.328C151.996 256.393 150.985 256.482 149.731 256.562C149.57 256.562 149.408 256.551 149.249 256.565C149.058 256.582 148.87 256.619 148.68 256.647C148.876 256.699 149.07 256.785 149.269 256.798C150.723 256.888 152.178 256.972 153.633 257.037C153.897 257.049 154.164 256.969 154.43 256.931C154.184 256.761 153.955 256.555 153.687 256.432C153.487 256.34 153.234 256.314 153.01 256.328ZM63.4466 250.405C63.3635 250.73 63.2035 251.058 63.2146 251.38C63.2338 251.949 63.3492 252.516 63.4388 253.082C63.5933 254.056 63.7552 255.03 63.929 256.001C63.9393 256.059 64.0807 256.094 64.1613 256.139C64.3221 255.686 64.6405 255.223 64.6137 254.78C64.5403 253.562 64.3221 252.351 64.0406 251.017L63.4466 250.405ZM265.059 226.938C265.269 227.086 265.479 227.444 265.452 227.688C265.172 230.281 265.931 232.92 265.033 235.501C264.827 236.092 265.276 236.878 265.209 237.553C265.009 239.539 264.703 241.514 264.436 243.494C264.384 243.872 264.268 244.251 264.275 244.628C264.34 247.729 264.428 250.829 264.507 253.929C264.511 254.089 264.559 254.274 264.499 254.407C264.277 254.893 263.967 255.786 263.783 255.764C263.096 255.68 263.001 255.036 263.051 254.391C263.092 253.872 263.06 253.347 263.06 252.705C262.788 251.29 262.454 250.062 262.737 248.649C262.938 247.642 262.858 246.497 262.472 245.324C262.078 244.131 262.666 242.613 262.837 241.238C262.888 240.824 263.032 240.419 263.052 240.005C263.226 236.377 263.346 232.745 263.575 229.12C263.616 228.461 264.046 227.809 264.374 227.196C264.467 227.023 264.939 226.855 265.059 226.938ZM251.413 0.269775C252.8 0.991777 254.056 1.93552 255.469 2.38332C257.526 3.03529 259.149 4.30866 260.578 5.72346C262.226 7.35567 263.709 9.23774 264.896 11.2301C266.231 13.4724 267.19 15.9507 267.399 18.6211C267.51 20.0321 267.644 21.448 267.629 22.8603C267.601 25.5896 266.503 27.9814 265.04 30.2174C264.702 30.7339 263.973 31.0863 263.832 31.6214C263.524 32.7842 263.936 33.4948 266.246 34.0251C266.392 34.0584 266.535 34.1041 266.68 34.1441C266.536 34.1844 266.387 34.2728 266.249 34.2579C264.906 34.1117 263.564 33.9475 262.221 33.7915C262.103 33.7777 261.979 33.765 261.863 33.7866C261.304 33.8902 260.748 34.0056 260.191 34.1171C260.485 34.51 260.754 34.9259 261.079 35.2915C261.946 36.2655 262.841 37.2149 263.715 38.1838C263.813 38.2928 263.842 38.4631 263.904 38.6051C263.767 38.5483 263.611 38.5156 263.495 38.4304C262.258 37.5275 261.036 36.6043 259.789 35.7155C259.5 35.5089 259.133 35.4115 258.801 35.2641C258.772 35.5738 258.67 35.8988 258.731 36.1892C258.83 36.6581 258.945 37.1681 259.212 37.5499C261.25 40.4693 262.41 43.7808 263.476 47.1196C264.533 50.4267 265.533 53.7561 266.403 57.1154C266.778 58.561 266.806 60.104 266.912 61.6086C267.107 64.3925 267.197 67.1842 267.414 69.9662C267.907 76.2879 266.885 82.35 264.467 88.2007C263.162 91.3577 261.942 94.5497 260.63 97.7032C260.273 98.5605 259.641 99.303 259.28 100.159C258.978 100.875 258.363 101.593 258.934 102.491C259.037 102.652 258.911 103.028 258.791 103.251C257.037 106.513 257.65 109.49 259.76 112.36C261.503 114.73 263.536 116.683 266.077 118.261C269.028 120.093 271.686 122.391 274.524 124.413C276.433 125.773 278.507 126.909 280.368 128.327C281.786 129.407 282.991 130.767 284.28 132.015C285.565 133.259 286.834 134.519 288.113 135.769C290.542 138.141 293.019 140.464 295.384 142.897C296.709 144.261 297.859 145.796 299.064 147.274C299.37 147.65 299.592 148.096 299.838 148.518C301.178 150.816 302.755 153.014 303.794 155.44C305.481 159.37 307.27 163.303 307.939 167.583C308.275 169.719 308.727 171.897 308.605 174.027C308.464 176.506 308.656 179.047 307.763 181.485C307.4 182.473 307.66 183.672 307.449 184.739C307.102 186.505 306.707 188.274 306.144 189.982C305.578 191.706 304.888 193.406 304.068 195.025C303.104 196.933 301.716 198.521 300.067 199.939C298.77 201.055 297.777 202.518 296.599 203.781C296.2 204.208 295.616 204.455 295.173 204.848C293.467 206.362 291.897 208.056 290.064 209.393C287.412 211.328 284.598 213.045 281.812 214.791C278.754 216.707 275.664 218.574 272.558 220.414C271.244 221.193 269.882 221.902 268.495 222.544C266.067 223.668 263.629 224.779 261.147 225.778C258.63 226.791 256.058 227.671 253.504 228.591C251.288 229.39 249.101 230.198 247.125 231.562C245.28 232.836 243.078 233.29 240.882 233.661C238.668 234.035 236.459 234.441 234.247 234.83C231.884 235.245 229.516 235.63 227.159 236.077C225.528 236.386 223.915 236.797 222.287 237.125C221.093 237.366 219.893 237.62 218.684 237.738C217.115 237.892 215.535 237.948 213.958 237.991C210.291 238.091 206.622 238.153 202.955 238.24C199.338 238.325 195.844 237.613 192.36 236.734C191.385 236.487 190.314 236.537 189.295 236.592C189.007 236.608 188.547 237.098 188.506 237.415C188.276 239.188 188.228 240.985 187.973 242.753C187.487 246.136 187.103 249.518 187.25 252.944C187.259 253.173 187.039 253.412 186.926 253.647C186.798 253.433 186.586 253.231 186.555 253.005C186.367 251.628 186.129 250.25 186.08 248.866C186.001 246.685 185.915 244.487 186.104 242.319C186.26 240.527 186.805 238.768 187.185 236.995C187.334 236.302 187.581 235.877 186.452 235.505C184.385 234.825 182.428 233.745 180.524 232.66C179.395 232.016 178.435 231.065 177.431 230.215C175.604 228.668 174.063 226.84 172.504 225.039C171.562 223.949 171.005 222.667 171.087 221.167C171.126 220.446 171.093 219.721 171.093 218.998C171.093 216.362 173.633 214.484 176.189 215.242C178.512 215.93 180.751 216.798 182.57 218.473C183.27 219.118 183.851 219.907 184.601 220.479C186.862 222.203 189.337 223.524 192.182 224.008C193.767 224.278 195.353 224.586 196.952 224.711C198.505 224.832 200.014 224.708 201.167 223.32C201.767 222.597 201.421 222.256 200.932 221.884C199.383 220.704 197.784 219.589 196.263 218.376C195.841 218.039 195.457 217.488 195.335 216.97C194.788 214.643 194.485 212.248 195.815 210.103C196.757 208.584 198.432 208.241 200.148 208.084C202.648 207.856 204.936 208.674 207.136 209.587C210.638 211.042 214.138 212.45 217.997 212.15C219.497 212.034 220.981 211.442 222.424 210.932C224.552 210.181 226.286 208.759 228.127 207.492C231.052 205.478 233.042 202.514 235.768 200.348C237.557 198.926 239.516 197.577 241.616 196.733C243.421 196.007 245.436 196.424 246.981 197.942L247.494 198.443C248.461 199.389 249.389 200.362 249.778 201.728C249.949 202.33 250.227 202.48 250.792 202.159C252.613 201.122 254.63 200.334 256.235 199.036C259.246 196.603 261.935 193.788 263.643 190.239C264.251 188.975 264.478 187.533 265.005 186.223C266.29 183.03 266.287 179.693 266.178 176.351C266.133 174.967 265.816 173.593 265.751 172.208C265.731 171.793 266.188 171.372 266.347 170.926C266.509 170.467 266.573 169.974 266.681 169.496C266.714 169.349 266.75 169.204 266.786 169.057C266.911 169.196 267.126 169.321 267.149 169.475C267.412 171.22 267.746 172.963 267.864 174.72C268.036 177.292 268.184 179.88 268.098 182.453C267.957 186.68 266.756 190.549 264.411 194.189C261.642 198.487 257.685 201.327 253.619 204.118C253.052 204.507 252.331 204.709 251.653 204.891C250.283 205.257 251.451 206.071 251.384 206.628C251.306 207.276 251.736 207.978 251.913 208.665C253.106 213.287 253.721 217.975 253.393 222.754C253.309 223.979 253.092 225.195 252.918 226.412C252.799 227.244 253.473 227.177 253.828 227.051C256.068 226.25 258.302 225.426 260.495 224.506C263.271 223.341 266.092 222.239 268.734 220.814C272.138 218.98 275.396 216.872 278.694 214.846C282.321 212.619 285.966 210.416 289.51 208.063C290.656 207.302 291.496 206.088 292.499 205.105C293.142 204.474 294.06 204.001 294.435 203.249C294.903 202.311 295.308 201.079 295.1 200.112C294.191 195.899 291.848 192.423 288.263 190.139C286.119 188.773 283.484 188.034 280.97 187.426C278.146 186.743 275.302 185.889 272.311 186.142C271.752 186.189 271.156 186.057 270.608 185.899C270.247 185.794 269.943 185.493 269.614 185.279C270.018 184.93 270.407 184.298 270.83 184.275C275.724 184.007 280.636 183.944 285.237 185.959L285.837 186.223C287.334 186.89 288.806 187.619 290.091 188.826C292.814 191.383 295.098 194.159 296.425 197.669C296.548 197.996 296.654 198.331 296.768 198.662C296.796 198.272 296.82 197.882 296.855 197.493C296.869 197.342 296.91 197.194 296.938 197.045C296.99 197.201 297.04 197.357 297.095 197.512C297.551 198.816 298.009 199.081 299.049 198.182C300.76 196.704 302.251 195.014 302.914 192.727C303.242 191.596 304.022 190.587 304.298 189.451C304.758 187.569 305.126 185.639 305.267 183.71C305.478 180.819 305.253 177.887 305.594 175.018C306.052 171.166 304.712 167.686 303.84 164.101C303.025 160.765 302.015 157.466 300.243 154.506C298.305 151.269 296.231 148.108 294.1 144.994C292.923 143.276 291.58 141.654 290.173 140.116C289.205 139.058 287.97 138.249 286.906 137.272C285.264 135.766 283.669 134.208 282.049 132.678C279.325 130.102 276.335 127.887 273.181 125.853C270.771 124.299 268.559 122.441 266.236 120.75C264.792 119.698 263.298 118.715 261.84 117.68C261.493 117.434 261.217 117.086 260.872 116.835C260.821 116.798 260.504 117.006 260.417 117.161C260.217 117.515 260.129 117.935 259.912 118.274C259.461 118.979 258.94 119.639 258.477 120.336C257.472 121.846 256.638 123.503 255.452 124.851C253.972 126.532 252.335 128.134 250.536 129.46C248.02 131.314 245.331 132.949 242.643 134.556C239.617 136.365 236.356 137.65 232.905 138.42C231.76 138.675 230.619 139.014 229.461 139.105C228.74 139.161 227.924 138.946 227.278 138.609C226.979 138.452 226.912 137.721 226.867 137.238C226.745 135.95 226.723 134.651 226.592 133.364C226.553 132.984 226.27 132.632 226.12 132.26C226.022 132.018 225.875 131.752 225.902 131.514C226.018 130.487 226.218 129.47 226.315 128.443C226.333 128.249 225.961 127.82 225.867 127.846C225.261 128.016 224.616 128.184 224.109 128.534C222.535 129.621 220.957 130.719 219.502 131.955C218.76 132.585 218.307 133.543 217.664 134.303C217.455 134.551 216.98 134.843 216.769 134.759C216.445 134.629 216.014 134.182 216.027 133.887C216.121 131.66 216.18 129.416 216.545 127.226C216.672 126.462 216.516 126.409 216.002 126.375C214.468 126.272 212.923 126.07 211.398 126.16C209.496 126.273 207.957 125.357 206.286 124.771C205.509 124.498 204.679 124.243 203.868 124.227C202.415 124.199 200.951 124.293 199.505 124.452C197.058 124.721 194.622 125.098 192.179 125.398C187.893 125.926 183.938 127.627 179.847 128.842C178.418 129.267 177.01 129.76 175.594 130.226C175.312 130.319 175.012 130.395 174.763 130.548C173.71 131.2 173.714 131.455 174.566 132.377C176.549 134.521 178.456 136.743 179.673 139.424C180.731 141.756 181.652 144.159 181.708 146.776C181.742 148.356 181.71 149.938 181.72 151.518C181.721 151.654 181.812 151.788 181.862 151.923C181.974 151.811 182.101 151.71 182.194 151.583C182.622 150.998 182.965 150.322 183.493 149.854C183.742 149.634 184.473 149.635 184.751 149.846C185.151 150.15 185.769 150.523 185.128 151.328C183.41 153.485 181.71 155.668 180.198 157.969C179.502 159.027 179.073 160.352 178.859 161.614C178.471 163.9 178.332 166.229 178.094 168.54C177.901 170.41 178.81 171.99 179.437 173.649C179.832 174.693 179.968 175.884 180.557 176.791C181.213 177.803 181.453 179.185 182.814 179.715C183.096 179.825 183.43 180.498 183.327 180.734C183.17 181.097 182.686 181.484 182.29 181.547C180.872 181.774 180.324 180.563 179.815 179.656C177.983 176.387 176.338 172.953 175.994 169.211C175.667 165.646 175.568 161.971 177.498 158.659C177.745 158.237 177.721 157.833 177.092 157.966C176.214 158.15 175.359 158.439 174.492 158.673C172.393 159.239 170.264 159.715 168.199 160.384C165.76 161.175 163.342 162.054 160.974 163.037C158.915 163.892 156.868 164.826 154.948 165.949C153.671 166.695 152.627 167.836 151.479 168.801C151.615 168.962 151.728 169.229 151.891 169.264C152.491 169.392 153.124 169.382 153.715 169.535C156.187 170.175 157.075 172.205 157.794 174.336C157.885 174.606 157.617 174.98 157.583 175.314C157.462 176.483 157.818 176.758 158.956 176.47C159.943 176.22 160.936 175.859 161.936 175.82C166.438 175.644 170.841 176.148 174.975 178.107C176.253 178.713 177.565 179.271 178.772 180C180.377 180.97 180.444 182.99 178.955 184.203C176.407 186.277 173.381 187.253 170.21 187.842C168.298 188.197 166.383 188.68 164.454 188.769C161.331 188.914 158.188 188.924 155.153 187.869C154.239 187.551 153.451 188.178 153.231 189.168C152.774 191.23 150.699 192.876 148.595 192.919C146.535 192.962 144.477 193.065 142.419 193.161C142.168 193.173 141.905 193.28 141.676 193.399C139.203 194.685 136.25 194.284 134.236 192.396C134.024 192.197 133.711 191.952 133.462 191.969C131.613 192.102 130.683 190.729 129.589 189.652C128.866 188.941 128.234 188.138 127.545 187.39C125.38 185.041 123.374 182.621 123.035 179.243C122.947 178.363 122.551 177.518 122.341 176.646C122.147 175.836 121.944 175.019 121.863 174.194C121.344 168.923 121.042 163.646 121.098 158.341C121.139 154.47 123.01 151.669 125.808 149.314C127.223 148.124 128.586 146.766 130.207 145.952C133.523 144.287 136.833 142.609 140.432 141.502C145.477 139.949 150.432 138.088 155.376 136.226C158.225 135.152 160.951 133.762 163.774 132.614C166.734 131.41 169.733 130.296 172.735 129.198C176.09 127.97 179.446 126.739 182.84 125.63C185.576 124.737 188.347 123.919 191.15 123.273C192.802 122.892 194.546 122.899 196.251 122.753C198.275 122.58 200.302 122.44 202.324 122.242C202.462 122.228 202.708 121.703 202.66 121.655C202.199 121.188 201.694 120.761 201.184 120.345C201.014 120.206 200.733 120.18 200.602 120.021C199.618 118.828 198.625 117.64 197.701 116.4C196.748 115.121 195.811 113.822 194.974 112.466C193.359 109.853 191.91 107.198 191.309 104.087C190.865 101.79 191.803 100.18 192.881 98.3823C193.782 96.8798 194.795 95.57 196.246 94.627C197.97 93.507 199.738 92.4781 201.927 92.596C202.451 92.6244 202.983 92.4226 203.516 92.3756C207.635 92.0132 211.52 93.0511 215.392 94.2839C219.166 95.4851 222.944 96.7206 226.799 97.594C228.406 97.9583 230.216 97.3295 231.935 97.3225C234.541 97.3125 235.144 95.1587 236.184 93.5138C238.395 90.0189 240.587 86.5087 242.642 82.922C243.198 81.9506 243.359 80.6951 243.479 79.5469C243.668 77.743 243.619 75.9158 243.759 74.1054C244.079 69.9659 248.546 67.3056 252.3 68.9841C254.961 70.1739 255.597 72.1122 254.118 74.762C253.239 76.3355 252.251 77.8487 251.315 79.3904C251.199 79.5818 250.992 79.7914 251.007 79.9777C251.165 81.9206 250.827 83.8433 251.41 85.8251C252.471 89.4332 255.056 91.8245 257.481 94.3896C257.923 94.8569 258.413 95.2798 258.835 95.7639C259.06 96.0224 259.185 96.3671 259.356 96.673C259.545 96.2687 259.725 95.8604 259.923 95.461C261.213 92.8637 261.884 90.073 262.608 87.2848C263.139 85.2389 264.092 83.3008 264.607 81.2522C265.072 79.4044 265.335 77.4796 265.443 75.5751L265.531 74.0341C265.689 71.2066 265.818 68.3688 265.654 65.5544C265.465 62.3165 264.806 59.1032 264.302 55.8872C263.608 51.4624 261.852 47.3521 260.371 43.1683C259.854 41.707 258.979 40.3682 258.227 38.9956C257.202 37.1259 256.159 35.2658 255.074 33.4316C254.905 33.1463 254.447 33.0451 254.162 32.8112C253.884 32.583 253.655 32.2939 253.404 32.0316C253.657 31.8118 253.907 31.4108 254.163 31.4062C254.933 31.3918 255.704 31.5838 256.477 31.5971C257.09 31.6076 257.729 31.5535 258.316 31.3875C259.642 31.013 260.951 30.5706 262.254 30.1201C263.672 29.6301 264.484 28.5157 264.942 27.1804C265.77 24.767 265.99 22.2981 265.496 19.7592C265.281 18.6532 265.447 17.4702 265.204 16.3737C264.683 14.0138 263.825 11.7304 262.178 9.92973C260.52 8.11661 258.721 6.40841 256.825 4.8457C255.877 4.06475 254.577 3.71024 253.436 3.16292C253.101 3.00202 252.751 2.8652 252.432 2.67645C251.287 1.99906 250.109 1.59128 248.724 1.68566C247.641 1.75921 246.528 1.41092 245.449 1.50069C241.157 1.85764 237.176 3.02744 233.708 5.78755C230.975 7.96248 229.258 10.7464 228.071 13.9207C226.993 16.8044 229.307 19.1668 231.883 19.2784C234.683 19.3996 237.118 20.3493 239.399 21.8495C240.446 22.5383 241.47 23.263 242.497 23.9823C242.6 24.055 242.65 24.204 242.725 24.3176C242.588 24.3024 242.431 24.3254 242.316 24.2662C240.791 23.4793 239.283 22.6581 237.749 21.8906C235.374 20.7024 232.871 19.8685 230.192 20.0691C227.7 20.2557 225.233 20.8598 222.743 20.9599C219.637 21.0845 216.788 22.0942 214.011 23.2259C210.743 24.5577 207.403 25.9401 204.513 27.913C201.061 30.2702 198.208 33.4207 195.682 36.8093C194.523 38.3639 193.793 40.0994 193.002 41.8506C191.304 45.6134 189.299 49.2369 187.526 52.9683C186.301 55.5492 185.249 58.2127 184.131 60.8447C183.783 61.6648 183.564 62.5531 183.124 63.317C182.686 64.0761 182.911 64.1491 183.634 64.1734C186.454 64.2683 188.852 63.0323 191.191 61.7289C193.751 60.3022 196.296 58.8198 198.699 57.1489C201.321 55.3261 203.77 53.2547 206.302 51.3031C206.782 50.9332 207.283 50.5763 207.82 50.3037C207.96 50.2323 208.487 50.5365 208.475 50.6076C208.338 51.4224 208.225 52.2623 207.927 53.0251C206.871 55.7214 205.741 58.389 204.652 61.0723C204.567 61.2797 204.573 61.5239 204.537 61.7511C204.745 61.6708 204.973 61.6218 205.158 61.5053C208.095 59.6573 211.085 57.8863 213.934 55.9121C215.506 54.8226 216.851 53.4013 218.277 52.1065C219.535 50.9643 220.71 49.7218 222.039 48.6715C222.436 48.3573 223.228 48.5395 223.839 48.4944C223.798 48.9673 223.762 49.4411 223.713 49.9132C223.555 51.4543 223.405 52.9962 223.229 54.5351C223 56.5262 222.739 58.5134 222.516 60.5053C222.473 60.8925 222.545 61.2925 222.564 61.6864C222.89 61.5472 223.24 61.4463 223.54 61.263C226.421 59.4983 229.357 57.8555 231.982 55.6541C233.941 54.0121 235.122 51.8548 236.746 50.0103C237.21 49.4843 237.426 48.3821 238.464 49.347C238.501 49.3813 238.655 49.3467 238.71 49.2961C239.924 48.178 239.613 49.3072 239.645 49.9265C239.727 51.4602 239.922 52.9989 239.858 54.5267C239.777 56.4575 239.41 58.3752 239.302 60.3063C239.178 62.5353 239.199 64.7724 239.182 67.0063C239.182 67.0685 239.537 67.2321 239.615 67.1804C240.363 66.6856 241.131 66.205 241.807 65.6209C242.669 64.8765 243.314 64.9587 243.531 66.0144C243.755 67.1031 243.894 68.2169 243.955 69.3259C243.97 69.6014 243.542 69.901 243.317 70.1896C243.059 69.9351 242.594 69.6934 242.578 69.424C242.501 68.1891 241.569 68.0082 240.636 68.3976C239.99 68.6672 239.501 69.2983 238.863 69.6044C238.355 69.8478 237.729 69.8432 237.155 69.9486C237.181 69.6517 237.216 69.3548 237.215 69.0579C237.215 69.033 236.977 69.0154 236.853 68.9827C236.527 68.8973 236.021 68.8946 235.922 68.6939C235.791 68.4286 235.947 67.9979 236.038 67.6534C236.257 66.8229 236.618 66.0149 236.724 65.1731C236.896 63.8116 236.881 62.4277 236.998 61.0577C237.124 59.5943 237.396 58.1392 237.448 56.6752C237.491 55.4269 237.314 54.1709 237.228 52.9186C237.221 52.811 237.16 52.7071 237.124 52.6017C237.01 52.7069 236.888 52.805 236.783 52.9189C235.928 53.8496 235.084 54.7912 234.221 55.7144C231.723 58.3834 228.566 60.1421 225.473 61.9807C224.613 62.4923 223.684 63.1818 222.762 63.2229C221.579 63.2754 221.84 63.8689 221.744 64.5366C221.712 64.7662 221.204 65.1088 220.956 65.0755C220.719 65.0436 220.339 64.5677 220.367 64.3265C220.585 62.4244 220.883 60.5318 221.161 58.6367C221.283 57.8047 221.46 56.978 221.532 56.1419C221.65 54.772 221.707 53.3969 221.779 52.0232C221.789 51.8321 221.744 51.6379 221.724 51.4454C221.582 51.5462 221.431 51.6366 221.299 51.7499C220.083 52.7983 218.843 53.821 217.662 54.9072C213.201 59.011 208.299 62.4547 202.758 64.9549C202.444 65.0964 201.83 65.2927 201.806 65.244C201.502 64.6212 200.903 63.8008 201.1 63.3319C202.162 60.7973 203.426 58.3474 204.621 55.8682C204.835 55.4234 205.05 54.9786 205.264 54.5335C204.819 54.8074 204.357 55.0578 203.931 55.3585C201.689 56.9412 199.522 58.6432 197.199 60.0975C194.956 61.5023 192.542 62.6351 190.227 63.9295C188.941 64.6491 187.342 65.0869 187.08 66.8897C187.004 67.4108 187.064 67.9506 187.01 68.4762C186.993 68.6417 186.808 68.7902 186.7 68.9462C186.647 68.7924 186.615 68.6279 186.538 68.4865C186.11 67.6918 185.851 66.6339 185.184 66.188C184.529 65.7505 183.451 65.8362 182.569 65.8822C181.878 65.9179 181.204 66.2499 180.518 66.433C180.418 66.4595 180.247 66.4254 180.191 66.3546C180.14 66.29 180.166 66.118 180.217 66.0271C181.57 63.6286 182.023 60.882 183.168 58.4063C184.214 56.1457 185.296 53.901 186.39 51.6625C187.386 49.6225 188.44 47.6098 189.433 45.5677C190.571 43.2275 191.793 40.9171 192.753 38.5042C193.903 35.6143 196.028 33.543 198.172 31.4697L199.329 30.3496C200.874 28.8569 202.44 27.3795 204.127 26.0642C205.426 25.0507 207.084 24.4996 208.566 23.714C211.809 21.995 215.286 20.8609 218.784 19.8477C220.575 19.3293 222.514 19.3295 224.382 19.0643C224.725 19.0156 225.047 18.8177 225.378 18.6884C225.096 18.4158 224.858 17.9948 224.524 17.8955C222.978 17.4364 221.405 17.0678 219.842 16.663C219.663 16.6165 219.477 16.5689 219.315 16.4821C219.032 16.3293 218.765 16.146 218.491 15.9756C218.815 15.8839 219.133 15.7479 219.464 15.709C220.353 15.6035 221.328 15.7331 222.114 15.4023C222.834 15.0997 223.544 14.4137 223.893 13.7147C224.161 13.1766 224.159 13.3645 224.402 13.6119C224.815 14.0322 225.218 14.4654 225.662 14.8507C225.794 14.9656 226.119 15.0389 226.236 14.9581C226.556 14.735 226.812 14.4205 227.094 14.1419C226.01 13.1639 226.865 12.3413 227.32 11.5011C228.558 9.21449 229.774 6.94113 231.728 5.11043C233.3 3.63668 235.084 2.65184 237.074 1.96202C238.648 1.4166 240.236 0.912817 241.818 0.330077C244.996 0.269775 248.175 0.269775 251.413 0.269775ZM149.613 245.569C150.018 246.243 150.439 246.908 150.868 247.566C151.043 247.834 151.26 248.075 151.458 248.328C151.486 248.06 151.451 247.763 151.559 247.532C151.669 247.294 151.891 247.082 152.112 246.925C152.819 246.424 153.569 245.982 154.256 245.457C154.527 245.25 154.677 244.883 154.882 244.589C154.613 244.562 154.344 244.534 153.834 244.507C152.668 244.427 151.502 244.309 150.334 244.277C149.342 244.25 149.101 244.716 149.613 245.569ZM94.6735 243.577C94.5581 244.088 94.4427 244.599 94.4547 245.23C94.5133 245.366 94.5721 245.502 94.6307 245.638C94.7792 245.547 95.0554 245.456 95.0552 245.366C95.0526 244.831 94.9949 244.295 94.9297 243.763C94.9209 243.692 94.7626 243.638 94.6735 243.577ZM91.5944 238.511C92.4979 239.985 93.4086 241.455 94.3474 242.906C94.472 243.098 94.7795 243.173 95.0023 243.302C95.1014 243.096 95.2636 242.898 95.2893 242.684C95.4688 241.183 96.1004 240.18 97.794 240.145C98.1322 240.138 98.4644 239.846 99.041 239.685C99.3153 239.572 99.6501 239.522 99.8516 239.332C100.301 238.908 100.683 238.414 101.093 237.948C100.428 237.865 99.7663 237.746 99.0995 237.706C98.2413 237.654 97.3714 237.729 96.5203 237.632C95.2327 237.486 93.9625 237.136 92.6744 237.065C91.6166 237.006 91.1369 237.764 91.5944 238.511ZM63.3267 239.937C63.2027 240.314 63.073 240.69 62.9566 241.07C62.9025 241.247 62.8738 241.432 62.7129 241.735C62.7129 241.972 62.6347 242.25 62.7308 242.439C62.8835 242.739 63.1523 242.98 63.3719 243.246C63.5546 242.933 63.8511 242.633 63.8903 242.303C63.9364 241.915 63.7737 241.497 63.6743 241.1C63.5763 240.707 63.4439 240.324 63.3267 239.937ZM242.911 198.282C241.232 198.605 239.767 199.483 238.67 200.901C237.535 202.369 236.489 203.972 235.1 205.161C233.02 206.94 230.723 208.481 228.429 209.99C225.834 211.697 222.973 212.934 220.021 213.847C217.349 214.672 214.644 213.948 211.994 213.379C210.785 213.12 209.586 212.799 208.406 212.43C206.736 211.908 204.967 211.528 203.474 210.677C202.51 210.127 201.699 209.893 200.671 210.021C200.084 210.094 199.409 209.91 198.907 210.138C196.77 211.107 195.757 214.776 197.31 216.483C198.658 217.964 200.292 219.235 201.962 220.358C203.408 221.33 204.134 223.677 203.176 225.132C201.838 227.163 199.686 227.556 197.565 227.839C195.155 228.16 192.811 227.529 190.576 226.688C187.461 225.515 184.881 223.445 182.483 221.22C180.767 219.629 178.995 218.249 176.645 217.383C176.043 217.502 175.444 217.636 174.839 217.732C174.595 217.771 174.338 217.727 174.087 217.721C174.245 217.579 174.394 217.424 174.565 217.299C174.673 217.219 174.812 217.181 174.937 217.124C174.791 217.09 174.575 216.976 174.508 217.034C173.918 217.544 173.21 218.001 172.834 218.647C172.584 219.075 172.595 219.848 173.376 220.178C173.562 220.256 173.682 220.605 173.74 220.851C174.538 224.232 176.762 226.75 179.058 229.118C181.204 231.331 184.006 232.659 186.929 233.653C187.495 233.845 188.074 234.014 188.659 234.133C190.332 234.473 192.013 234.78 193.689 235.105C196.282 235.607 198.795 236.465 201.517 236.337C206.958 236.083 212.406 236.013 217.85 235.812C219.436 235.753 221.042 235.636 222.592 235.318C225.651 234.688 228.662 233.831 231.718 233.192C235.877 232.322 240.061 231.577 244.229 230.748C244.575 230.679 245.176 230.325 245.152 230.199C244.833 228.509 246.321 228.583 247.123 228.409C249.288 227.941 250.631 226.849 251 224.62C251.172 223.579 251.568 222.564 251.643 221.523C251.755 219.975 251.822 218.395 251.633 216.863C251.413 215.075 250.863 213.329 250.515 211.553C249.851 208.165 249.221 204.757 247.578 201.68C247.039 200.672 246.218 199.736 245.321 199.025C244.694 198.528 243.655 198.139 242.911 198.282ZM190.667 224.638C190.78 224.751 190.894 224.864 191.249 224.978C192.038 225.203 192.814 225.533 193.618 225.631C195.066 225.808 196.531 225.85 197.99 225.934C198.101 225.941 198.218 225.838 198.333 225.785C198.224 225.757 198.116 225.706 198.007 225.704C195.623 225.659 193.28 225.382 191.031 224.532C190.936 224.497 190.789 224.6 190.667 224.638ZM75.2919 221.141C76.5424 221.189 77.791 221.295 79.0385 221.401C79.2553 221.42 79.4627 221.59 79.6766 221.594C84.2001 221.685 88.7239 221.763 93.3685 221.843C94.2267 222.004 94.9571 222.238 95.703 222.31C97.1118 222.445 98.5291 222.503 99.9439 222.563C103.938 222.733 107.932 222.898 111.926 223.045C114.586 223.144 117.248 223.209 119.908 223.293C120.059 223.298 120.208 223.341 120.359 223.366C120.21 223.421 120.063 223.518 119.913 223.525C116.361 223.694 112.81 223.961 109.257 223.978C106.51 223.992 103.763 223.662 101.013 223.538C96.8595 223.351 92.7012 223.254 88.5493 223.035C85.3085 222.864 82.0728 222.585 78.8379 222.316C77.573 222.212 76.3155 222.014 75.0583 221.832C74.8894 221.808 74.7423 221.632 74.5851 221.526C74.8211 221.391 75.0615 221.132 75.2919 221.141ZM185.475 218.981C186.789 219.389 188.071 220.034 189.411 220.191C191.319 220.415 193.269 220.299 195.202 220.298C195.837 220.298 196.471 220.184 197.107 220.166C197.365 220.159 197.626 220.271 197.887 220.329C197.638 220.513 197.412 220.745 197.138 220.871C194.277 222.189 191.33 222.081 188.231 221.361C187.776 221.2 187.408 221.086 187.114 220.87C186.379 220.332 185.677 219.749 184.966 219.179C184.928 219.148 184.928 219.069 184.911 219.012C185.1 218.999 185.306 218.929 185.475 218.981ZM104.227 134.963C104.669 135.179 104.845 136.176 104.914 136.839C104.965 137.326 104.979 137.947 103.999 137.987C102.481 138.047 103.062 139.359 103.048 140.193C103.029 141.283 103.237 142.375 103.254 143.468C103.29 145.718 103.445 147.988 103.206 150.212C103.027 151.865 103.208 153.336 103.688 154.9C103.953 155.765 104.408 155.812 104.988 155.758C105.655 155.697 106.302 155.444 106.964 155.307C107.209 155.256 107.637 155.209 107.696 155.315C107.826 155.556 107.91 156.059 107.78 156.162C107.255 156.577 106.63 157.193 106.063 157.172C103.917 157.095 103.413 158.104 103.491 159.872C103.562 161.477 103.579 163.09 103.491 164.693C103.303 168.147 102.911 171.562 102.142 174.963C101.699 176.926 102.033 179.07 102.069 181.132C102.088 182.225 102.164 183.324 102.323 184.404C102.401 184.938 102.604 185.549 102.96 185.93C103.846 186.877 104.8 187.714 105.99 188.37C110.319 190.754 113.277 194.246 114.682 199.117C115.237 201.043 115.595 202.96 115.788 204.91C116.083 207.898 114.806 210.535 113.545 213.127C112.026 216.248 109.56 218.31 106.431 219.847C103.437 221.318 100.357 221.76 97.1405 221.565C95.9255 221.491 94.7525 220.88 93.5328 220.709C91.2306 220.384 89.4703 219.005 87.592 217.856C86.9664 217.474 86.3657 216.978 85.9052 216.411C83.6292 213.61 81.7631 210.537 81.1022 206.963C80.5424 203.935 80.5329 200.827 81.5638 197.856C82.4044 195.433 83.8598 193.345 85.5586 191.435C87.0519 189.756 88.7283 188.211 90.0218 186.393C90.8562 185.22 91.36 183.699 91.6267 182.263C91.9951 180.279 92.0733 178.23 92.137 176.204C92.1827 174.754 91.9231 173.297 91.9361 171.845C91.9637 168.783 92.1854 165.721 92.1129 162.664C92.0815 161.344 91.69 159.96 91.151 158.742C90.5175 157.311 90.5925 155.949 91.0768 154.611C91.7192 152.837 91.9586 151.048 91.9404 149.175C91.9242 147.522 92.1251 145.867 92.1448 144.212C92.1562 143.242 92.0187 142.268 91.9161 141.299C91.7517 139.748 91.7731 138.234 92.7047 136.794C94.1043 134.6 96.1231 133.899 98.5431 133.814C100.554 133.745 102.464 134.102 104.227 134.963ZM93.6116 160.122C93.5258 164.387 93.4183 168.651 93.3837 172.917C93.3704 174.57 93.6593 176.231 93.5762 177.876C93.4776 179.832 92.8836 181.783 92.9475 183.722C93.0268 186.124 91.9507 187.771 90.2479 189.131C87.4472 191.367 85.1904 194.035 83.4567 197.157C83.3955 197.267 83.4361 197.437 83.4389 197.579C83.4472 197.989 83.5934 198.456 83.4491 198.802C82.7366 200.511 81.8007 202.172 82.5157 204.113C82.7975 204.878 83.2347 205.586 83.503 206.354C83.6205 206.69 83.6365 207.324 83.4462 207.454C82.9521 207.791 82.8839 207.999 83.2082 208.513C83.4776 208.941 83.5041 209.513 83.7209 209.983C85.2202 213.233 87.2046 216.043 90.5045 217.756C94.9149 220.044 99.4606 219.847 104.032 218.518C107.869 217.403 110.448 214.695 112.438 211.114C113.673 208.374 114.386 205.599 113.942 202.505C113.604 200.143 112.713 198.015 111.395 196.216C109.897 194.171 107.85 192.524 106.018 190.729C105.149 189.878 104.295 188.982 103.305 188.292C101.924 187.331 100.975 186.067 100.388 184.561C99.3504 181.903 99.5887 179.047 100.229 176.458C101.122 172.848 100.867 169.208 101.295 165.6C101.516 163.738 101.335 161.829 101.334 159.941C101.333 158.844 100.289 158.091 99.2289 158.214C98.2172 158.331 97.156 158.342 96.1564 158.169C94.6415 157.908 93.6428 158.582 93.6116 160.122ZM108.821 216.178L108.352 216.778C108.544 216.728 108.776 216.738 108.914 216.607C108.998 216.527 108.938 216.231 108.821 216.178ZM149.142 215.202C149.172 215.348 149.401 215.549 149.549 215.56C151.035 215.665 152.557 215.572 154.003 215.86C155.597 216.176 156.031 215.388 156.369 214.007C156.668 213.455 156.688 213.025 155.935 212.844C154.772 212.566 153.623 212.232 152.459 211.963C150.301 211.466 148.697 213.033 149.142 215.202ZM198.378 191.036C200.463 191.146 202.505 191.517 204.498 192.534C207.585 194.109 208.386 197.532 207.306 200.128C206.794 201.362 207.116 202.941 207.059 204.484C206.869 206.006 206.944 207.353 207.845 208.541C207.874 208.579 207.76 208.727 207.712 208.824C207.045 208.495 206.373 208.173 205.714 207.828C205.644 207.791 205.613 207.623 205.615 207.516C205.69 204.418 205.782 201.319 205.848 198.219C205.88 196.663 205.855 196.646 204.399 197.014C202.911 197.392 201.44 197.844 199.939 198.162C199.731 198.206 199.4 197.671 199.125 197.403C199.465 197.111 199.761 196.708 200.155 196.55C201.12 196.161 202.149 195.931 203.113 195.538C203.443 195.403 203.921 194.913 203.869 194.695C203.738 194.141 203.404 193.601 203.034 193.152C202.822 192.894 202.388 192.708 202.042 192.688C198.769 192.5 195.523 191.758 192.204 192.391C190.989 192.623 189.686 192.351 188.433 192.445C185.733 192.646 183.032 192.9 180.469 193.878C180.314 193.937 180.172 194.029 180.024 194.105C180.159 194.204 180.28 194.346 180.43 194.393C181.961 194.872 183.474 195.447 185.038 195.775C186.801 196.144 188.612 196.279 190.4 196.533C190.782 196.588 191.164 196.69 191.525 196.825C191.635 196.867 191.768 197.13 191.73 197.229C191.594 197.573 191.348 198.189 191.215 198.171C188.68 197.829 186.151 197.437 183.631 196.993C182.943 196.872 182.299 196.523 181.622 196.323C180.73 196.06 180.052 196.552 180.024 197.438C179.864 202.552 179.702 207.666 179.543 212.78C179.534 213.061 179.503 213.348 179.548 213.622C179.724 214.68 179.389 215.075 178.31 214.975C178.222 214.966 178.098 214.619 178.104 214.433C178.168 212.136 178.384 209.836 178.301 207.546C178.203 204.83 177.705 202.125 177.658 199.41C177.623 197.338 177.634 195.16 178.987 193.357C179.889 192.155 181.403 192.237 182.631 192.014C185.184 191.55 187.802 191.4 190.4 191.241C193.056 191.079 195.729 190.895 198.378 191.036ZM136.591 213.179C136.39 213.903 136.803 214.522 137.519 214.582C138.981 214.704 140.457 214.633 141.924 214.704C142.859 214.749 143.334 214.249 143.827 213.546C144.869 212.062 144.762 210.957 143.214 209.788C142.813 209.788 142.381 209.886 142.015 209.773C139.057 208.863 137.246 210.828 136.591 213.179ZM152.882 208.839C152.482 209.035 151.422 208.858 152.024 210.15C153.577 210.657 155.128 211.172 156.692 211.644C156.766 211.666 157.072 211.301 157.075 211.113C157.093 209.703 154.276 208.158 152.882 208.839ZM144.821 207.059C143.363 207.193 141.905 207.325 140.453 207.51C140.298 207.529 140.186 207.881 140.055 208.079C140.258 208.167 140.457 208.313 140.667 208.33C141.144 208.367 141.665 208.223 142.098 208.366C143.116 208.701 144.749 208.061 144.847 209.973C144.988 209.95 145.202 209.977 145.257 209.896C145.485 209.558 145.801 209.199 145.83 208.828C145.875 208.273 145.706 207.701 145.386 207.136C145.197 207.108 145.006 207.042 144.821 207.059ZM195.637 196.026C196.066 196.361 196.639 196.504 197.125 196.773C198.555 197.566 198.672 198.456 197.464 199.602C197.498 198.878 197.748 198.059 196.715 198.008C196.113 197.979 195.469 198.227 194.892 198.466C194.555 198.605 194.311 198.971 194.024 199.235C194.429 199.458 194.822 199.839 195.24 199.868C195.953 199.916 196.682 199.742 197.404 199.662C196.391 200.866 195.442 201.143 194.102 200.626C193.302 200.318 192.121 197.576 192.6 196.943C192.962 196.464 193.535 196.141 194.026 195.765C194.652 195.284 195.112 195.618 195.637 196.026ZM137.414 144.78C135.464 145.481 133.489 146.319 131.803 147.498C129.516 149.098 127.464 151.041 125.363 152.895C123.6 154.451 123.056 156.619 123.103 158.804C123.192 163.006 123.639 167.201 123.742 171.403C123.795 173.551 124.127 175.585 124.717 177.64C125.393 179.998 125.902 182.382 127.632 184.279C128.272 184.98 128.791 185.796 129.329 186.585C129.88 187.395 130.352 188.261 130.937 189.044C131.079 189.234 131.528 189.195 131.836 189.262C131.853 189.038 131.829 188.801 131.895 188.592C132.094 187.951 132.327 187.322 132.548 186.688C132.764 187.171 132.983 187.652 133.195 188.137C133.284 188.341 133.378 188.547 133.435 188.761C134.352 192.21 138.061 193.453 140.792 192.353C142.446 191.687 142.732 190.398 141.151 189.159C140.662 188.776 140.192 188.366 139.593 187.848C139.393 187.568 139.086 187.31 139.024 187.003C138.956 186.666 139.007 186.188 139.213 185.954C139.34 185.81 139.973 185.882 140.177 186.073C141.432 187.243 142.594 188.511 143.855 189.674L144.11 189.909C145.341 191.043 146.599 192.124 148.563 191.732C149.696 191.507 151.299 190.618 151.541 189.79C151.748 189.085 150.94 186.931 150.163 186.677C148.492 186.13 147.242 185.005 145.874 184.007C143.828 182.515 143.402 179.697 145.011 177.813C145.2 177.591 145.188 177.206 145.302 176.91C145.352 176.779 145.483 176.679 145.578 176.566C145.635 176.67 145.746 176.777 145.74 176.878C145.673 178.01 145.641 179.149 145.489 180.271C145.374 181.125 145.909 182.489 146.704 182.887C147.72 183.395 148.522 184.164 149.912 184.093C151.072 184.033 152.272 184.886 153.465 185.303C154.802 185.769 156.146 186.213 157.5 186.627C157.732 186.698 158.027 186.567 158.293 186.529C158.241 186.392 158.227 186.213 158.131 186.124C156.35 184.488 156.626 182.321 156.632 180.24C156.633 179.883 156.899 179.514 157.084 179.172C157.202 178.955 157.397 178.778 157.558 178.584C157.267 178.472 156.949 178.227 156.69 178.278C156.151 178.384 155.654 178.683 155.12 178.84C152.753 179.536 150.379 180.214 148.001 180.873C147.917 180.896 147.668 180.666 147.652 180.534C147.504 179.337 148.398 178.994 149.266 178.694C151.024 178.086 152.965 178.054 154.514 176.778C155.621 175.866 156.369 174.482 156.034 173.409C155.5 171.698 154.525 170.98 152.764 170.968C151.406 170.958 150.049 170.91 148.691 170.9C147.21 170.889 145.72 170.8 144.25 170.934C143.018 171.046 141.814 171.442 140.591 171.682C140.403 171.719 140.185 171.597 139.98 171.548C140.47 171.034 140.91 170.142 141.459 170.069C144.512 169.664 147.422 168.838 150.22 167.584C150.454 167.479 150.667 167.249 150.808 167.026C151.168 166.458 151.335 165.589 151.837 165.319C154.755 163.751 157.752 162.329 160.711 160.835C161.146 160.615 161.794 160.332 161.871 159.977C162.156 158.664 162.464 157.289 162.352 155.973C162.179 153.934 161.011 152.245 159.527 150.907C157.844 149.388 155.914 148.155 153.719 147.489C150.96 146.654 148.184 145.857 145.379 145.206C143.88 144.858 142.305 144.805 140.758 144.706C139.641 144.635 138.411 144.421 137.414 144.78ZM158.204 183.975C159.357 185.926 161.123 187.088 163.731 187.125C164.904 187.044 166.089 187.048 167.245 186.865C169.38 186.527 171.505 186.117 173.615 185.652C174.131 185.538 174.555 185.208 173.938 184.501C172.626 183.001 172.682 181.406 173.91 179.832C174.079 179.616 174.108 179.292 174.201 179.018C173.932 178.987 173.664 178.932 173.395 178.931C171.251 178.924 169.105 178.989 166.964 178.908C165.138 178.839 163.321 178.509 161.496 178.467C158.457 178.396 156.663 181.37 158.204 183.975ZM207.761 182.426C209.451 182.985 211.139 183.564 212.775 184.26C213.453 184.548 214.006 185.141 214.596 185.619C214.998 185.945 215.366 186.312 215.749 186.66C215.334 186.787 214.925 186.982 214.502 187.024C214.023 187.072 213.502 187.077 213.049 186.938C210.987 186.308 208.925 185.673 206.9 184.936C205.602 184.465 204.834 185.125 203.99 185.905C203.347 186.499 202.505 186.724 201.898 185.906C201.359 185.18 201.897 184.591 202.533 184.051C203.665 183.144 204.788 182.394 206.206 182.313C206.723 182.283 207.281 182.267 207.761 182.426ZM176.137 180.469C175.863 180.597 175.589 180.725 175.314 180.852C174.311 181.319 174.017 181.982 174.425 182.858C174.803 183.669 176.433 184.482 177.065 184.174C178.051 183.692 178.539 182.487 178.093 181.217C177.251 181.101 177.712 181.977 177.339 182.205C176.997 182.415 176.632 182.59 176.278 182.78C176.239 182.42 176.185 182.062 176.164 181.702C176.14 181.292 176.145 180.88 176.137 180.469ZM167.932 133.108C163.504 134.835 159.188 136.847 154.786 138.647C152.344 139.646 149.807 140.41 147.329 141.325C146.18 141.749 145.056 142.249 143.952 142.78C143.613 142.944 143.38 143.327 143.097 143.61C143.497 143.809 143.877 144.091 144.301 144.194C146.097 144.63 147.904 145.017 149.71 145.413C153.808 146.311 157.507 147.854 160.362 151.152C162.197 153.271 163.583 155.454 163.361 158.358C163.294 159.225 163.677 159.576 164.468 159.384C165.555 159.119 166.619 158.761 167.691 158.432C169.51 157.874 171.327 157.308 173.386 156.746C174.628 156.344 175.932 156.073 177.098 155.514C179.818 154.209 179.867 154.721 179.776 151.869C179.686 149.079 179.881 146.304 179.366 143.499C178.78 140.301 177.37 137.6 175.239 135.316C174.293 134.301 172.813 133.64 171.451 133.199C170.367 132.848 168.953 132.709 167.932 133.108ZM101.593 155.286C99.342 155.326 97.0891 155.288 94.8372 155.31C94.4676 155.313 94.0995 155.46 93.489 155.54C93.0493 155.904 92.6094 156.269 92.1697 156.633C92.5298 156.831 92.8793 157.177 93.2521 157.204C96.0376 157.408 98.8282 157.546 101.617 157.712C102.549 157.767 102.531 157.122 102.54 156.493C102.549 155.842 102.531 155.27 101.593 155.286ZM94.3247 138.224C93.1706 138.782 93.7107 139.997 93.6097 141.195C93.5293 142.607 93.4002 144.02 93.3791 145.434C93.3412 147.964 93.3276 150.497 93.407 153.025C93.4208 153.47 93.9078 154.251 94.2272 154.278C96.4372 154.466 98.6606 154.535 100.88 154.53C101.186 154.53 102.181 154.489 101.619 153.427C101.23 152.691 101.133 151.738 101.115 150.878C101.055 148.107 101.058 145.333 101.112 142.563C101.13 141.582 101.241 140.564 101.547 139.641C101.762 138.99 101.678 138.251 100.981 138.193C99.5294 138.072 98.0729 137.98 96.6169 137.956C95.8473 137.944 94.9807 137.906 94.3247 138.224ZM258.4 114.117C258.229 114.256 258.029 114.372 257.892 114.539C257.255 115.316 256.7 116.169 255.999 116.881C253.5 119.42 251.103 122.076 247.898 123.806C245.894 124.888 243.99 126.171 241.577 126.728C239.581 127.251 237.606 127.881 235.584 128.265C233.578 128.645 231.527 128.79 229.493 129.011C228.916 129.073 228.036 129.045 228.347 129.829C229.119 131.778 228.956 133.73 228.787 135.715C228.663 137.16 229.05 137.599 230.421 137.188C233.203 136.355 236.06 135.621 238.66 134.376C242.809 132.39 246.712 129.932 250.384 127.122C252.424 125.561 254.234 123.86 255.299 121.472C255.557 120.894 255.807 120.245 256.249 119.829C257.751 118.42 258.845 116.886 258.474 114.689C258.442 114.499 258.424 114.308 258.4 114.117ZM102.317 135.278C100.132 135.303 97.9446 135.238 95.7625 135.321C95.1775 135.343 94.5429 135.683 94.0578 136.046C93.8057 136.235 93.2713 136.975 94.286 137.037C95.8686 137.133 97.4556 137.16 99.2822 137.216C100.763 137.169 102.247 137.158 103.723 137.045C104.051 137.02 104.404 136.681 104.632 136.396C104.701 136.31 104.406 135.908 104.248 135.672C103.736 134.909 103 135.271 102.317 135.278ZM218.645 127.452C218.404 128.191 218.136 128.923 217.937 129.674C217.874 129.91 217.998 130.197 218.037 130.461C218.311 130.352 218.624 130.294 218.85 130.124C219.741 129.453 220.602 128.746 221.476 128.055C221.961 127.672 222.45 127.295 222.936 126.916C222.452 126.733 221.96 126.568 221.485 126.363C220.159 125.788 219.36 126.066 218.645 127.452ZM249.426 84.9011C249.341 85.2245 249.317 85.5828 249.157 85.8638C248.843 86.4162 248.294 86.8781 248.119 87.4606C246.865 91.6447 245.688 95.852 244.47 100.047C243.846 102.195 243.159 104.326 242.548 106.478C241.601 109.818 240.641 113.162 238.661 116.067C237.584 117.649 237.001 119.557 235.161 120.651C232.15 122.44 229.388 124.719 225.611 124.696C225.222 124.693 224.831 124.922 224.442 125.044C224.783 125.224 225.128 125.396 225.462 125.588C225.564 125.646 225.674 125.739 225.715 125.841C226.263 127.218 227.492 127.408 228.675 127.299C230.964 127.087 233.243 126.734 235.512 126.356C239.116 125.756 242.537 124.647 245.75 122.836C249.645 120.641 252.89 117.745 255.818 114.191C256.131 113.718 256.508 113.273 256.735 112.762C256.907 112.374 256.888 111.902 256.953 111.467C256.665 111.451 256.376 111.436 256.088 111.418C255.268 111.366 254.953 110.836 255.112 110.135C255.463 108.592 255.68 107.062 255.345 105.49C255.308 105.318 255.373 105.107 255.438 104.932C255.961 103.543 256.446 102.136 257.038 100.776C257.695 99.2652 258.307 97.7828 257.019 96.316C256.136 95.3093 255.238 94.3085 254.276 93.3788C252.118 91.295 250.598 88.8448 249.781 85.9581C249.68 85.6009 249.545 85.2532 249.426 84.9011ZM202.836 93.9762C199.615 94.2744 196.95 95.3069 195.037 97.8136C193.424 99.9266 192.501 102.256 193.501 105.111C195.17 109.882 197.543 114.188 200.911 117.96C201.402 118.511 201.719 119.22 202.1 119.866C202.27 120.155 202.383 120.478 202.559 120.762C202.587 120.807 202.916 120.759 202.94 120.694C203.052 120.381 203.254 119.995 203.159 119.729C202.237 117.141 201.268 114.569 200.299 111.998C198.602 107.496 197.275 102.926 197.647 98.0337C197.662 97.8439 197.636 97.5588 197.744 97.4834C198.355 97.0575 198.999 96.6776 199.639 96.2947C199.725 96.2436 199.854 96.2652 199.963 96.2533C199.97 96.3904 200.038 96.5716 199.976 96.6581C198.357 98.8933 198.818 101.238 199.574 103.609C200.583 106.767 201.585 109.928 202.575 113.091C203.277 115.333 203.976 117.575 204.638 119.829C205.025 121.149 205.563 122.246 206.77 123.128C209.64 125.226 212.832 124.739 215.982 124.535C217.885 124.412 219.77 123.998 221.904 123.715C222.394 123.634 222.886 123.566 223.373 123.471C225.27 123.103 227.221 122.9 229.047 122.31C231.56 121.498 233.697 119.942 235.639 118.162C235.948 117.879 236.123 117.403 236.256 116.983C236.994 114.647 236.068 112.44 235.636 110.212C235.214 108.038 234.553 105.912 234.109 103.742C233.496 100.746 231.333 98.9017 228.408 99.0886C226.765 99.1938 225.039 99.2097 223.456 98.8287C220.267 98.0607 217.135 97.0394 214.005 96.0389C210.368 94.8758 206.834 93.606 202.836 93.9762ZM248.029 70.3599C246.329 71.0392 245.749 72.5749 245.499 74.0635C245.111 76.368 245.195 78.7476 244.928 81.0777C244.757 82.568 244.312 84.0269 243.99 85.7407C243.422 86.6301 242.845 87.5138 242.287 88.4094C240.129 91.8696 237.921 95.3071 234.926 98.1137C233.902 99.0732 233.815 99.8744 234.246 101.135C234.97 103.255 235.431 105.464 236.029 107.628C236.506 109.355 237.017 111.073 237.53 112.79C237.586 112.979 237.836 113.295 237.865 113.281C238.14 113.147 238.534 113.01 238.622 112.773C240.273 108.355 241.784 103.883 243.535 99.5061C245.454 94.709 246.45 89.6836 247.62 84.6929C248.178 82.3173 248.843 79.9958 250.455 78.0264C251.299 76.9953 251.924 75.7593 252.501 74.5465C252.865 73.7836 253.536 73.0757 252.975 72.0057C252.102 70.3413 249.967 69.5847 248.029 70.3599ZM204.567 67.5633C206.689 67.6128 208.82 67.7645 210.922 68.0509C212.48 68.2629 214.01 68.7207 215.528 69.1525C216.09 69.3121 216.552 69.0325 217.005 69.0433C218.048 69.0676 219.128 69.2834 220.116 69.6371C224.817 71.3199 229.618 72.1963 234.636 71.9056C236.336 71.8072 238.055 72.0381 239.827 72.1184C238.763 72.3596 237.649 72.6679 236.514 72.8256C234.9 73.0497 233.271 73.179 231.646 73.3107C231.318 73.3374 230.966 73.1103 230.644 73.1511C230.221 73.2049 229.817 73.408 229.405 73.547C229.54 73.8545 229.598 74.2428 229.823 74.4564C230.974 75.5505 232.276 76.0351 233.898 75.5113C235.395 75.0278 236.959 74.7523 238.453 74.2633C239.257 74.0005 240.005 73.5248 240.728 73.0668C241.43 72.6222 242.004 72.765 242.125 73.5135C242.14 73.6079 242.152 73.772 242.107 73.7969C241.06 74.3715 240.054 75.0738 238.938 75.4596C237.382 75.9978 235.762 76.4426 234.134 76.6532C232.84 76.8209 232.74 77.5453 232.903 78.4504C233.406 81.2384 233.587 84.0166 233.158 86.8378C233.046 87.5752 233.303 88.3686 233.39 89.1363C233.925 88.7485 234.466 88.3673 234.996 87.9722C236.288 87.0098 237.574 86.0404 238.865 85.0777C238.936 85.0247 239.034 85.0079 239.12 84.9744C239.091 85.1115 239.107 85.2851 239.029 85.3803C238.162 86.426 237.333 87.5087 236.393 88.4854C234.592 90.3588 232.792 92.2433 230.868 93.9872C228.889 95.7812 226.542 96.8003 223.828 95.9661C220.732 95.0145 217.69 93.8929 214.62 92.8558C213.384 92.4383 211.935 92.3223 210.944 91.5852C209.376 90.42 207.549 90.02 205.855 89.2531C204.774 88.764 203.645 88.331 202.493 88.0584C201.209 87.7545 200.048 88.1352 199.083 89.1144C196.841 91.3913 194.564 93.6344 192.307 95.8972C191.308 96.8993 188.46 96.8452 187.382 95.7298C184.945 93.2071 183.485 90.1263 182.975 86.7215C182.551 83.8941 182.435 80.9926 182.491 78.1302C182.535 75.9215 183.578 73.9813 184.89 72.1409C186.717 69.5768 189.656 69.616 192.178 68.8183C194.343 68.1334 196.708 68.0317 198.998 67.8002C200.844 67.6133 202.712 67.5201 204.567 67.5633ZM217.439 70.3556C217.598 70.4611 217.754 70.5722 217.917 70.6706C218.206 70.8445 218.506 71.0011 218.791 71.1814C220.129 72.03 221.475 72.8669 222.796 73.7406C224.276 74.719 225.488 75.9483 226.123 77.643C226.71 79.2089 227.255 80.7906 227.818 82.6064C227.818 82.767 227.784 82.9366 227.823 83.0872C228.371 85.2056 228.163 87.3048 227.853 89.4432C227.575 91.355 226.778 92.9535 225.634 94.4418C225.53 94.5767 225.5 94.7687 225.436 94.9342C225.544 94.964 225.659 95.0345 225.76 95.0172C228.166 94.6054 230.046 93.4064 230.885 91.0679C231.416 89.5895 231.816 87.999 231.895 86.4395C232.023 83.9195 232.088 81.346 231.712 78.866C231.374 76.6403 229.095 75.6944 227.557 74.3239C226.535 73.4137 225.285 72.6533 224.007 72.1625C222.06 71.4145 220.002 70.9548 217.987 70.3832C217.816 70.3345 217.622 70.3632 217.439 70.3556ZM198.057 69.2913C195.564 69.5363 193.099 70.252 190.675 70.9448C188.812 71.477 187.451 72.7455 187.296 74.7879C187.154 76.6392 187.252 78.5099 187.269 80.3717C187.294 83.1191 187.989 85.6764 189.424 88.0398C189.792 88.6458 190.073 89.3697 189.176 89.8824C189.115 89.917 189.123 90.1742 189.178 90.2904C189.354 90.6609 189.574 91.0105 189.764 91.3748C189.83 91.5016 189.859 91.6476 189.904 91.7847C189.762 91.7123 189.579 91.6744 189.484 91.5616C188.082 89.8913 187.148 87.986 186.542 85.7407C186.139 83.5766 185.559 81.4258 185.392 79.2435C185.264 77.5643 185.659 75.8455 185.812 74.1435C185.821 74.0411 185.749 73.9313 185.716 73.8247C185.63 73.8977 185.507 73.9534 185.465 74.0459C185.012 75.0635 184.285 76.0602 184.188 77.1138C183.988 79.279 184.128 81.4753 184.128 83.6586C184.127 86.6929 185.202 89.4208 186.596 92.0373C187.057 92.9037 187.653 93.7198 188.302 94.4597C189.037 95.2985 190.71 95.0197 191.996 93.7704C194.812 91.0354 197.563 88.2337 200.341 85.4592C200.938 84.8627 201.474 84.1764 202.157 83.7045C202.537 83.4425 203.391 83.2951 203.634 83.5215C204.195 84.0447 204.075 84.6277 203.237 85.0209C202.725 85.2605 202.381 85.7778 203.055 86.3313C203.418 86.6301 203.682 87.1207 204.089 87.284C206.02 88.0606 208.004 88.7069 209.929 89.496C211.064 89.9608 212.087 90.6993 213.226 91.1501C215.749 92.149 218.302 93.0751 220.864 93.9726C223.5 94.8964 225.229 93.8428 225.897 91.2631C226.501 88.9265 226.531 86.576 226.387 84.1859C226.18 80.7676 225.316 77.7465 222.565 75.3758C219.765 72.9627 216.671 71.1558 213.128 70.2293C211.066 69.6901 208.909 69.3829 206.778 69.2653C203.877 69.1049 200.939 69.0076 198.057 69.2913ZM213.679 80.3817C214.108 80.4999 214.421 81.0393 214.783 81.5215C214.846 82.2676 214.917 82.8925 214.959 83.5196C214.962 83.5701 214.739 83.7075 214.674 83.6799C214.063 83.4203 213.316 83.2654 212.906 82.8122C212.588 82.4604 212.541 81.6897 212.664 81.1745C212.747 80.8263 213.415 80.309 213.679 80.3817ZM195.65 79.5442C195.855 80.369 196.035 81.3725 195.136 81.9236C194.721 82.1778 194.08 82.065 193.542 82.1186C193.542 81.9598 193.542 81.8008 193.481 81.5818C193.142 80.5537 193.3 79.6765 194.28 79.2757C194.659 79.1202 195.598 79.3384 195.65 79.5442ZM247.189 73.143C247.68 73.192 248.111 73.3012 248.542 73.4102C248.399 73.8172 248.281 74.2355 248.104 74.6276C247.981 74.9007 247.709 75.117 247.625 75.3956C247.448 75.9845 247.075 76.2382 246.648 75.7982C246.377 75.5194 246.242 74.921 246.331 74.5313C246.441 74.053 246.849 73.643 247.189 73.143ZM243.266 71.3191C243.149 71.4248 243.046 71.6003 242.914 71.6252C241.948 71.8066 240.977 71.9578 239.947 72.1184C240.886 71.7969 241.882 71.4681 242.886 71.1655C242.988 71.1349 243.138 71.2642 243.266 71.3191Z" fill="#00160A" fill-opacity="0.48"/>
</g>
<defs>
<clipPath id="clip0_2088_20106">
<rect width="308.086" height="292.786" fill="white" transform="translate(0.818115 0.158691)"/>
</clipPath>
</defs>
</svg>
