<svg width="260" height="262" viewBox="0 0 260 262" fill="none" xmlns="http://www.w3.org/2000/svg">
<path fill-rule="evenodd" clip-rule="evenodd" d="M131.216 168.683C130.911 173.204 136.166 181.366 137.629 183.054C139.412 185.113 141.584 208.965 141.584 208.965C136.479 208.592 133.887 211.048 133.25 211.759C133.376 214.171 133.398 216.348 133.091 217.951C133.056 218.13 132.476 218.154 131.684 218.186C131.031 218.212 130.234 218.245 129.48 218.375C128.298 218.577 128.161 220.108 128.078 221.028C128.069 221.13 128.06 221.225 128.051 221.309C127.587 225.519 130.165 227.293 133.21 229.387C133.806 229.798 134.42 230.22 135.033 230.676C135.859 231.292 139.014 232.928 140.652 233.508C140.67 233.515 140.655 233.941 140.627 234.683C140.474 238.829 139.956 252.836 143.057 258.543C145.83 263.645 151.581 261.906 154.724 260.955C155.662 260.671 156.368 260.458 156.694 260.517C173.981 263.662 221.156 261.596 221.337 257.87C221.355 257.51 221.337 256.229 221.311 254.335C221.181 244.83 220.84 219.883 223.628 218.372C224.435 217.936 225.222 217.515 225.996 217.101L225.997 217.101L225.997 217.101C229.104 215.441 232.005 213.89 235.149 211.853C244.057 206.076 250.206 201.325 255.083 191.647C264.422 173.122 257.355 153.547 244.137 139.809C242.109 137.702 240.019 135.651 237.796 133.754C234.529 130.968 231.105 128.367 227.68 125.776C226.1 124.581 224.188 123.463 222.213 122.308C217.692 119.665 212.841 116.828 210.882 112.421C208.606 107.302 210.708 99.8588 212.461 95.0522L212.708 94.3751C215.343 87.1525 217.576 81.0336 218.104 73.1696C218.681 64.6594 218.131 56.7637 214.886 48.9478C213.212 44.9201 212.503 40.4811 212.769 35.8704C213.916 36.2698 214.847 37.0285 215.78 37.7881C216.626 38.4779 217.474 39.1684 218.484 39.5909C218.126 38.182 217.035 37.2073 215.94 36.2289L215.94 36.2288C215.354 35.7054 214.767 35.181 214.29 34.5883C215.467 34.2276 216.639 34.3791 217.829 34.533C218.786 34.6567 219.755 34.782 220.749 34.644C220.533 34.5537 220.31 34.4779 220.088 34.4022C219.745 34.2853 219.402 34.1684 219.083 33.9981C217.008 32.8889 218.391 30.3449 219.372 28.5404L219.372 28.5402L219.372 28.5396C219.677 27.9792 219.942 27.4902 220.054 27.1377C220.703 25.096 220.897 21.511 220.613 19.4016C219.785 13.2573 216.557 7.23868 211.226 3.8588C209.131 2.53147 205.363 1.36211 203.021 0.667847C202.519 0.667847 202.017 0.683789 201.515 0.699729C200.887 0.719674 200.259 0.739617 199.63 0.728323C199.524 0.69291 199.244 1.53673 199.006 2.25437C198.838 2.76227 198.69 3.20696 198.64 3.23203C197.497 3.80304 196.523 4.24475 195.656 4.63787C192.659 5.99727 190.943 6.77571 187.943 10.3109C184.869 13.9322 185.288 17.3067 185.768 19.8032C183.778 19.5464 181.298 17.9336 179.429 16.7188C178.182 15.9078 177.207 15.2742 176.834 15.34C176.209 15.4486 175.582 15.5464 174.955 15.6441L174.955 15.6442C173.849 15.8166 172.743 15.989 171.649 16.2206C172.643 17.1092 173.943 17.2993 175.232 17.4877C176.691 17.7009 178.135 17.912 179.105 19.1307C178.271 19.568 178.383 20.4057 178.487 21.1857C178.592 21.9717 178.69 22.6992 177.802 22.8995C177.34 23.0043 176.858 23.111 176.361 23.2208L176.36 23.2211C172.832 24.0013 168.587 24.9404 165.592 26.4797C155.231 31.8064 150.944 39.4216 145.977 49.5259C145.17 51.1684 144.342 53.3424 143.516 55.5119L143.516 55.5129L143.516 55.5134C142.705 57.6408 141.897 59.7637 141.112 61.3768C140.561 62.5063 139.066 63.1241 137.571 63.742C136.085 64.356 134.599 64.9701 134.04 66.0866C134.027 66.112 134.014 66.1381 134 66.1649C133.897 66.3636 133.775 66.5976 133.875 66.7809C133.982 66.972 134.292 66.9575 134.51 66.9406C134.534 66.9387 134.61 66.9039 134.727 66.8501C135.356 66.5618 137.175 65.7286 138.559 66.493C139.973 67.2744 142.826 70.245 141.923 71.4521C138.295 76.3095 139.676 82.1491 140.739 86.3654C142.06 91.6051 143.753 93.1041 145.182 94.3693C145.44 94.5977 145.689 94.8184 145.926 95.0522C146.371 95.4897 146.687 96.415 146.97 97.2448C147.193 97.8969 147.395 98.49 147.624 98.7413C147.66 98.781 147.795 98.604 147.992 98.3457C148.755 97.3449 150.448 95.1239 150.935 99.5637C151.435 104.15 152.117 105.882 153.934 110.495L153.934 110.495L153.935 110.498C154.359 111.575 154.845 112.809 155.405 114.274C155.638 114.881 155.861 115.482 156.079 116.069L156.079 116.07C157.022 118.607 157.87 120.889 158.915 122.274C159.018 122.41 157.654 122.962 156.847 123.289L156.846 123.29C156.595 123.391 156.398 123.471 156.316 123.51C155.084 124.099 154.359 124.667 153.718 125.169C152.782 125.901 152.026 126.493 150.138 126.805C147.926 127.17 144.157 128.717 141.062 129.988L141.061 129.988L141.061 129.988C139.735 130.533 138.532 131.027 137.629 131.355C136.256 131.853 134.946 132.327 133.687 132.781C122.899 136.678 115.889 139.211 105.579 144.529C103.112 145.801 99.1663 146.191 95.4035 146.564C91.9701 146.903 88.6887 147.228 86.8215 148.194C87.9573 147.882 83.0168 150.896 83.0168 150.896C80.7984 152.654 79.1225 156.121 78.7132 158.755C77.9551 163.627 78.1198 165.901 78.8609 170.773C79.1233 172.496 79.2054 174.109 79.2823 175.621C79.48 179.508 79.6438 182.727 82.7528 185.43C84.426 186.885 84.7361 186.865 85.3225 186.828C85.4915 186.817 85.6834 186.805 85.9375 186.826C86.6303 186.883 87.0928 187.749 87.5531 188.61C87.7671 189.01 87.9805 189.409 88.2164 189.726C89.4104 191.332 92.9778 191.441 94.1184 190.065C94.7804 189.264 95.773 190.103 96.7663 190.944C97.3174 191.41 97.8687 191.876 98.3639 192.063C99.7807 192.598 101.219 192.51 102.672 192.215C104.273 191.891 104.842 189.448 104.576 187.762C104.494 187.246 105.879 187.689 106.89 188.012L106.89 188.012L106.89 188.013C107.287 188.139 107.625 188.248 107.795 188.272C108.916 188.436 109.991 188.65 111.041 188.858C112.534 189.155 113.976 189.441 115.433 189.562C119.681 189.912 123.699 189.175 127.634 187.747C128.966 187.266 130.427 186.736 131.594 185.848C131.722 185.783 132.294 185.454 132.408 185.323C133.037 184.786 133.294 184.334 133.476 183.637C133.609 183.134 133.575 182.181 133.272 181.794C131.504 179.518 122.856 177.171 117.366 177.256C116.536 177.269 115.707 177.32 114.878 177.372L114.877 177.372C113.977 177.428 113.077 177.484 112.176 177.491C112.13 177.491 112.082 177.492 112.033 177.493H112.033C111.749 177.5 111.423 177.509 111.272 177.292C111.099 177.046 111.241 176.47 111.364 175.97L111.364 175.97C111.445 175.645 111.517 175.351 111.49 175.2C111.393 174.641 111.151 174.102 110.841 173.627C109.812 172.05 108.863 171.179 107.022 170.635C106.69 170.537 106.335 170.548 105.982 170.559C105.588 170.571 105.196 170.583 104.837 170.444C105.266 169.363 106.421 168.636 107.501 167.955C107.897 167.706 108.284 167.462 108.62 167.21L108.606 167.212C109.853 166.486 111.13 165.656 111.942 165.129L111.943 165.129L111.944 165.128C112.506 164.763 112.845 164.543 112.793 164.604C113.941 164.733 114.958 164.188 115.946 163.658C116.358 163.437 116.765 163.219 117.174 163.054C117.456 162.94 117.737 162.825 118.018 162.711L118.151 162.656C120.096 161.863 122.042 161.069 124.052 160.473C125.912 159.923 127.82 159.554 129.727 159.185C130.229 159.088 130.73 158.991 131.231 158.891L131.266 158.884L131.303 158.876C131.53 158.829 131.784 158.777 131.977 158.891C132.129 158.98 133.668 157.458 135.436 155.709L135.436 155.709L135.436 155.709L135.436 155.709C137.728 153.442 140.405 150.793 140.949 150.78C141.059 150.777 140.846 150.935 140.425 151.247L140.424 151.247L140.424 151.247C139.225 152.136 136.34 154.272 134.436 157.501C131.955 161.706 131.269 167.897 131.216 168.683ZM110.083 242.391C110.265 242.671 110.214 242.859 110.157 243.069C110.122 243.198 110.085 243.335 110.098 243.509C110.212 245.033 110.386 246.552 110.57 248.069C110.591 248.24 110.633 248.43 110.676 248.629C110.781 249.106 110.897 249.633 110.759 250.062C110.643 250.417 110.035 250.524 109.754 250.531C109.164 250.547 108.573 250.533 107.982 250.518H107.982C107.064 250.495 106.147 250.472 105.235 250.565C102.542 250.841 100.456 253.526 100.708 256.184C100.747 256.576 101.527 257.053 101.849 257.089C103.299 257.252 103.897 257.178 104.64 257.085C105.165 257.02 105.762 256.945 106.782 256.939C107.816 256.934 108.85 256.99 109.88 257.092C110.388 257.142 110.764 257.331 110.577 257.945C110.293 258.882 109.394 259.224 108.537 259.549C108.132 259.703 107.736 259.854 107.419 260.062C105.948 261.026 105.691 262.899 105.469 264.525C105.431 264.804 105.393 265.077 105.351 265.336L105.344 265.376L105.338 265.417C105.277 265.782 105.133 266.655 105.39 266.92C105.695 267.235 106.852 267.235 107.213 267.235C107.864 267.234 108.515 267.216 109.166 267.198C110.247 267.168 111.327 267.138 112.406 267.186C114.329 267.268 115.678 267.648 117.322 268.662C119.063 269.741 119.461 272.126 119.206 273.981C119.138 274.476 118.888 274.991 118.641 275.5C118.228 276.352 117.823 277.186 118.291 277.876C118.919 278.802 120.763 278.984 121.723 279.079L121.727 279.08C121.799 279.087 121.865 279.094 121.926 279.1C122.965 279.211 124.007 279.287 125.048 279.363L125.049 279.363L125.051 279.363L125.052 279.363L125.053 279.364L125.054 279.364L125.055 279.364C126.165 279.445 127.275 279.526 128.38 279.649C131.976 280.052 136.303 280.996 140.027 281.808C141.241 282.073 142.392 282.324 143.432 282.537C143.687 282.59 143.943 282.635 144.199 282.68L144.201 282.68C144.504 282.732 144.807 282.785 145.108 282.852L145.123 282.855C145.364 282.908 145.936 283.034 145.735 283.498C145.426 284.207 144.164 284.176 143.328 284.156C142.6 284.138 142.195 284.128 143.02 284.62C139.719 286.06 136.06 286.396 132.512 286.616C123.36 287.182 120.296 287.182 111.134 286.829C104.678 286.58 102.969 286.386 98.5773 285.889L98.5767 285.889L98.5761 285.889L98.5756 285.888L98.573 285.888C97.3712 285.752 95.9686 285.593 94.2129 285.404C93.1858 285.293 92.1489 285.188 91.1064 285.082C86.5424 284.618 81.8713 284.142 77.4393 283.174C72.5375 282.102 69.5805 281.226 68.2 278.889C67.9066 278.391 67.4144 278.072 67.0229 277.818C66.6582 277.582 66.3807 277.402 66.4321 277.186C66.6834 276.136 66.9177 276.084 67.1758 276.028C67.1964 276.023 67.2172 276.018 67.2382 276.013C67.2502 276.01 67.2622 276.007 67.2743 276.004C67.3079 275.995 67.342 275.983 67.3766 275.967C67.9345 275.715 68.5392 275.536 69.1378 275.358L69.1383 275.358C69.423 275.274 69.7062 275.19 69.9825 275.099C70.3852 274.965 70.9272 274.965 71.4876 274.965C72.6594 274.966 73.9122 274.966 74.1432 273.742C74.3152 272.829 74.334 271.781 74.3523 270.754C74.3662 269.975 74.38 269.208 74.4605 268.521C74.5176 268.027 75.9196 268.055 76.878 268.073C77.5046 268.086 77.9415 268.094 77.6888 267.951C75.2693 266.567 74.5888 261.637 74.2982 259.169C73.688 253.98 74.2083 250.649 75.0072 245.535L75.0078 245.531C76.117 238.414 77.6161 233.358 81.2755 227.115C81.6944 226.401 82.065 225.757 82.414 225.151L82.4144 225.15C83.6414 223.018 84.6015 221.351 86.451 218.726C86.8748 218.123 87.8871 217.48 88.6161 217.349C88.7605 217.323 88.9587 217.317 89.1843 217.309C89.9272 217.284 90.9673 217.249 91.3649 216.483C91.8977 215.46 92.2453 214.504 92.5812 213.581C93.1367 212.055 93.6602 210.616 94.9371 209.103C96.5234 207.221 97.8312 206.79 99.8171 207.571C100.393 207.796 100.987 208.462 101.004 209.117C101.047 210.696 100.35 212.032 99.6509 213.375C99.1284 214.377 98.6043 215.383 98.3857 216.495C98.7264 216.518 99.3174 216.655 99.9904 216.812L99.9908 216.812C101.466 217.155 103.335 217.59 103.828 217.11C105.154 215.821 105.995 213.095 106.479 211.526L106.506 211.437C106.952 209.995 107.833 208.684 109.691 208.967C111.554 209.25 111.966 210.663 112.428 212.243C112.597 212.821 112.772 213.423 113.028 213.999C114.539 217.405 114.641 221.486 112.992 224.868C112.661 225.546 112.233 226.197 111.803 226.851C110.949 228.149 110.084 229.462 109.952 231.041C109.856 232.194 110.025 233.367 110.193 234.537C110.477 236.513 110.761 238.483 109.766 240.347C109.262 238.687 109.466 243.845 110.083 242.391ZM40.1526 294.34C37.5751 293.783 35.1508 293.68 32.6579 293.573C31.4687 293.523 30.2639 293.471 29.0194 293.37C26.2756 293.145 23.5347 292.879 20.7936 292.614L20.79 292.613L20.7894 292.613L20.7888 292.613L20.7881 292.613C17.5093 292.295 14.2302 291.977 10.9453 291.73C10.2107 291.674 9.43773 291.684 8.65264 291.694C6.48943 291.721 4.23451 291.749 2.43981 290.421C1.08299 289.419 1.19282 287.672 1.29056 286.116C1.3214 285.626 1.35104 285.154 1.33303 284.731C1.2899 283.75 1.19224 282.752 1.0939 281.746C0.811189 278.857 0.522768 275.908 1.5074 273.132C2.29295 270.916 4.8739 270.121 6.85958 269.509L6.98075 269.472C7.00395 269.465 6.87454 269.584 6.65792 269.782C5.69894 270.662 3.03089 273.109 4.32884 273.147C5.15191 273.171 5.20562 275.691 5.26846 278.641C5.34412 282.192 5.43304 286.365 6.89356 287.554C8.34666 288.737 43.1993 292.753 47.5658 291.468C50.2153 291.611 49.7697 276.34 47.6458 275.815C47.0866 275.676 45.9148 275.635 44.7996 275.596H44.7992H44.7987C43.2043 275.54 41.7259 275.488 42.3201 275.162C42.9216 274.831 43.0065 274.063 43.084 273.362C43.1504 272.761 43.2114 272.209 43.5868 272.022C44.8413 271.395 48.6145 271.826 48.7138 271.84C48.9718 271.882 49.2337 271.909 49.4957 271.937C50.0378 271.994 50.5802 272.05 51.0896 272.235C51.913 272.537 51.9784 273.328 51.9833 274.034C52.0172 278.227 52.0002 282.419 51.9518 286.609C51.9372 287.973 51.8791 289.978 51.092 291.197C49.5331 293.613 46.4927 293.871 43.8248 294.097L43.8234 294.097C43.1968 294.151 42.5909 294.202 42.0295 294.279C41.4244 294.34 40.8192 294.34 40.1536 294.34H40.1526ZM45.4129 216.761C45.13 216.453 44.6207 215.963 44.0358 215.399C42.7785 214.188 41.1716 212.64 40.7121 211.846C40.0825 210.755 37.4378 205.201 39.6465 203.962C40.0942 203.71 40.5473 203.721 41.1932 203.737C41.7633 203.751 42.4835 203.768 43.4827 203.611C45.1238 203.354 46.718 202.796 48.329 202.233C50.6647 201.416 53.0356 200.586 55.6355 200.641C62.8356 200.791 68.8369 205.339 68.694 206.253C67.3886 214.625 60.8255 220.09 52.722 219.763C49.952 219.652 48.3242 218.615 46.0271 217.152L46.022 217.148C45.8243 217.022 45.6217 216.893 45.4129 216.761ZM124.638 187.794C124.498 187.832 124.368 187.868 124.251 187.902C123.557 187.969 122.802 188.109 122.017 188.254C119.464 188.726 116.603 189.254 114.537 187.53C112.837 186.11 109.822 182.609 112.532 180.628C112.992 180.294 113.488 179.999 114.016 179.794C114.532 179.595 115.079 179.453 115.629 179.421C116.367 179.38 117.123 179.519 117.872 179.657C118.397 179.754 118.918 179.85 119.427 179.883C120.035 179.922 120.646 179.919 121.256 179.915C121.706 179.913 122.155 179.91 122.604 179.924C122.941 179.936 123.279 179.946 123.616 179.956C124.914 179.995 126.212 180.034 127.503 180.149C127.709 180.166 127.968 180.227 128.06 180.408C128.118 180.524 128.023 180.652 127.937 180.77C127.911 180.804 127.887 180.838 127.867 180.87C127.737 181.08 127.603 181.257 127.477 181.422C127.122 181.89 126.836 182.266 126.922 183.055C126.964 183.451 127.099 183.831 127.233 184.21C127.369 184.594 127.504 184.978 127.545 185.379C127.703 186.957 125.836 187.467 124.638 187.794Z" fill="white"/>
</svg>
