<svg width="56" height="57" viewBox="0 0 56 57" fill="none" xmlns="http://www.w3.org/2000/svg">
<path d="M28 7.5C28.4641 7.5 28.9093 7.68437 29.2374 8.01256C29.5656 8.34075 29.75 8.78587 29.75 9.25V14.5C29.75 14.9641 29.5656 15.4092 29.2374 15.7374C28.9093 16.0656 28.4641 16.25 28 16.25C27.5359 16.25 27.0908 16.0656 26.7626 15.7374C26.4344 15.4092 26.25 14.9641 26.25 14.5V9.25C26.25 8.78587 26.4344 8.34075 26.7626 8.01256C27.0908 7.68437 27.5359 7.5 28 7.5ZM13.062 13.562C13.3902 13.2339 13.8352 13.0496 14.2992 13.0496C14.7633 13.0496 15.2083 13.2339 15.5365 13.562L18.739 16.761C19.0676 17.0896 19.2522 17.5353 19.2522 18C19.2522 18.4647 19.0676 18.9104 18.739 19.239C18.4104 19.5676 17.9647 19.7522 17.5 19.7522C17.0353 19.7522 16.5896 19.5676 16.261 19.239L13.062 16.0365C12.7339 15.7083 12.5496 15.2633 12.5496 14.7992C12.5496 14.3352 12.7339 13.8902 13.062 13.562ZM7 28.5C7 28.0359 7.18437 27.5908 7.51256 27.2626C7.84075 26.9344 8.28587 26.75 8.75 26.75H14.301C14.7651 26.75 15.2102 26.9344 15.5384 27.2626C15.8666 27.5908 16.051 28.0359 16.051 28.5C16.051 28.9641 15.8666 29.4093 15.5384 29.7374C15.2102 30.0656 14.7651 30.25 14.301 30.25H8.75C8.28587 30.25 7.84075 30.0656 7.51256 29.7374C7.18437 29.4093 7 28.9641 7 28.5ZM40.25 28.5C40.25 28.0359 40.4344 27.5908 40.7626 27.2626C41.0908 26.9344 41.5359 26.75 42 26.75H47.25C47.7141 26.75 48.1592 26.9344 48.4874 27.2626C48.8156 27.5908 49 28.0359 49 28.5C49 28.9641 48.8156 29.4093 48.4874 29.7374C48.1592 30.0656 47.7141 30.25 47.25 30.25H42C41.5359 30.25 41.0908 30.0656 40.7626 29.7374C40.4344 29.4093 40.25 28.9641 40.25 28.5ZM42.889 13.639C42.6461 13.3985 42.3219 13.2579 41.9804 13.245C41.6389 13.232 41.3049 13.3476 41.0445 13.569L26.4145 26.085C26.0775 26.3735 25.8045 26.7292 25.613 27.1293C25.4215 27.5295 25.3156 27.9652 25.3023 28.4086C25.289 28.852 25.3684 29.2933 25.5355 29.7043C25.7026 30.1152 25.9537 30.4867 26.2727 30.7949C26.5917 31.1032 26.9716 31.3414 27.3881 31.4943C27.8045 31.6472 28.2483 31.7114 28.6909 31.6828C29.1336 31.6543 29.5655 31.5335 29.9588 31.3284C30.3521 31.1232 30.6982 30.8382 30.975 30.4915L42.994 15.452C43.2024 15.1899 43.3072 14.8604 43.2884 14.5262C43.2697 14.1919 43.1288 13.8762 42.8925 13.639H42.889Z" fill="white" fill-opacity="0.8"/>
<path fill-rule="evenodd" clip-rule="evenodd" d="M23.324 56.1115C19.6978 55.4974 16.228 54.1751 13.1128 52.2201C9.99762 50.2651 7.29799 47.7157 5.16807 44.7173C0.866499 38.6619 -0.853387 31.1457 0.386765 23.8222C1.62692 16.4988 5.72552 9.96787 11.7809 5.6663C17.8363 1.36473 25.3525 -0.355157 32.676 0.884995C40 2.12515 46.5313 6.22394 50.8332 12.2797C55.1351 18.3354 56.8552 25.852 55.615 33.176C54.3749 40.5 50.2761 47.0313 44.2203 51.3332C38.1646 55.6351 30.648 57.3551 23.324 56.115V56.1115ZM6.99652 41.121C13.3797 37.4285 20.6257 35.4893 28 35.5C35.651 35.5 42.826 37.5475 49.0035 41.121C51.2361 37.4034 52.442 33.1599 52.498 28.8239C52.554 24.4878 51.4581 20.2146 49.3223 16.4406C47.1866 12.6666 44.0873 9.52708 40.3413 7.34271C36.5952 5.15835 32.3364 4.00739 28 4.00739C23.6636 4.00739 19.4049 5.15835 15.6588 7.34271C11.9127 9.52708 8.81348 12.6666 6.67769 16.4406C4.5419 20.2146 3.44605 24.4878 3.50206 28.8239C3.55807 33.1599 4.76394 37.4034 6.99652 41.121Z" fill="white" fill-opacity="0.8"/>
</svg>
